<svg width="5096" height="4886" viewBox="0 0 5096 4886" fill="none" xmlns="http://www.w3.org/2000/svg">
<path d="M2560.39 4885.56C3960.68 4885.56 5095.84 4294.48 5095.84 3565.34C5095.84 2836.2 3960.68 2245.11 2560.39 2245.11C1160.1 2245.11 24.9352 2836.2 24.9352 3565.34C24.9352 4294.48 1160.1 4885.56 2560.39 4885.56Z" fill="#F5F5F5"/>
<path d="M4184.73 3737.82C4558.22 3737.82 4860.99 3563 4860.99 3347.36C4860.99 3131.71 4558.22 2956.89 4184.73 2956.89C3811.24 2956.89 3508.47 3131.71 3508.47 3347.36C3508.47 3563 3811.24 3737.82 4184.73 3737.82Z" fill="#E6E6E6"/>
<path d="M1461.26 3115.61C1719.97 3265 1730.52 3511.62 1471.69 3661.01C1212.86 3810.41 782.997 3805.97 524.168 3656.57C265.339 3507.18 265.45 3265 524.168 3115.61C782.886 2966.22 1202.32 2966.22 1461.26 3115.61Z" fill="#E6E6E6"/>
<path d="M3571.62 3920.62L2722.32 3430.27C2707.43 3422.71 2690.97 3418.77 2674.27 3418.77C2657.57 3418.77 2641.1 3422.71 2626.21 3430.27L1776.91 3920.62C1750.39 3935.94 1750.39 3960.8 1776.91 3976.11L2163.71 4199.43L1802.44 4407.98C1729.08 4450.26 1609.65 4450.26 1536.06 4407.98L967.795 4079.89C936.496 4061.8 919.181 4039.05 919.181 4015.96C919.181 3992.87 936.496 3970.01 967.795 3951.92L1471.36 3661.12C1474.01 3659.74 1476.35 3657.83 1478.25 3655.51C1480.14 3653.19 1481.55 3650.52 1482.39 3647.64C1483.22 3644.76 1483.46 3641.75 1483.1 3638.78C1482.74 3635.81 1481.78 3632.94 1480.29 3630.35C1478.79 3627.75 1476.78 3625.49 1474.38 3623.7C1471.99 3621.9 1469.26 3620.61 1466.35 3619.89C1463.44 3619.18 1460.42 3619.07 1457.46 3619.55C1454.51 3620.04 1451.69 3621.12 1449.16 3622.72L945.819 3913.29C900.202 3939.71 875.007 3976.11 875.007 4015.85C875.007 4055.58 900.202 4091.88 945.819 4118.29L1514.09 4446.38C1562.14 4471.14 1615.42 4484.06 1669.47 4484.06C1723.53 4484.06 1776.81 4471.14 1824.86 4446.38L2208.33 4225.06L2626.65 4466.47C2641.54 4474.02 2658.01 4477.96 2674.71 4477.96C2691.41 4477.96 2707.88 4474.02 2722.77 4466.47L3572.06 3976.11C3598.15 3960.8 3598.15 3935.94 3571.62 3920.62Z" fill="#E6E6E6"/>
<path d="M4542.12 3164C4542.12 3164 4572.97 2706.94 4564.31 2538.46C4557.1 2405.27 4539.01 2349.78 4535.23 2319.7C4535.23 2319.7 4502.49 2008.93 4499.83 1743.77C4498.5 1616.36 4486.73 1525.79 4416.92 1374.4L3968.19 1481.72C3959.09 1548.98 3928.23 1996.27 3920.91 2393.95C3914.58 2742.13 3924.46 3046.91 3924.46 3046.91V3065.22C3924.46 3085.64 3920.02 3099.85 3906.92 3132.48C3890.55 3174.52 3867.04 3213.42 3837.44 3247.46C3828.23 3257.45 3764.19 3313.39 3755.75 3325.16C3728.23 3357.23 3785.28 3375.32 3827.56 3369.55C3871.96 3363.56 3941.44 3346.58 3960.75 3319.5C3973.85 3301.29 3983.73 3237.92 3997.16 3219.61C4042.55 3157.67 4061.2 3130.81 4061.53 3111.28C4062.2 3075.54 4049.88 3061.44 4045.44 3041.24C4049.1 2999.07 4140.22 2652.22 4141.78 2529.36C4142.55 2470.87 4138.56 2390.29 4138.56 2390.29L4209.15 1984.95C4236.45 2086.18 4284.4 2337.46 4300.6 2433.91C4320.25 2551.78 4371.64 2854.34 4402.05 3034.81C4413.7 3104.4 4419.14 3139.58 4424.24 3171.88L4425.47 3185.64C4426.46 3203.18 4439.23 3390.75 4446.11 3429.82C4460.54 3511.84 4533.46 3501.52 4545.11 3435.15C4555.1 3378.77 4542.67 3203.85 4542.34 3182.42L4542.12 3164Z" fill="#FFA8A7"/>
<path d="M4542.12 3164C4562.76 3164 4549.22 3244.02 4554.55 3295.19C4560.21 3350.13 4578.19 3390.31 4583.4 3435.26C4590.4 3474.55 4584.36 3515.04 4566.2 3550.58C4551.88 3583.88 4479.74 3628.27 4452.32 3581.54C4424.91 3534.82 4419.03 3480.77 4422.25 3429.49C4425.46 3378.21 4422.25 3343.8 4423.25 3303.51C4424.24 3268 4398.16 3177.32 4424.91 3172.21L4426.13 3185.98C4435.79 3205.18 4533.24 3208.95 4543 3182.98L4542.12 3164Z" fill="#37474F"/>
<path d="M4066.19 3154.9C4072.52 3180.54 4066.19 3250.91 4066.19 3250.91C4066.19 3250.91 4055.09 3275.21 4015.47 3291.31L3997.71 3193.41L4066.19 3154.9Z" fill="#263238"/>
<path d="M4015.25 3291.3L3928.01 3262.67L3906.92 3185.2L4005.04 3234.81L4015.25 3291.3Z" fill="black"/>
<path d="M3924.46 3065.22V3046.9C3912.58 3052.68 3886.5 3148.24 3851.2 3213.39C3819.02 3273.21 3755.2 3306.51 3734.44 3332.59C3706.69 3367.33 3760.64 3412.28 3847.1 3393.75C3890.05 3384.54 3955.09 3357.12 3972.74 3328.15C3990.38 3299.18 3996.27 3245.91 4010.7 3224.6C4025.12 3203.29 4059.42 3178.76 4066.19 3154.56C4071.83 3132.72 4071.83 3109.81 4066.19 3087.97C4059.42 3065.77 4053.43 3039.25 4045.88 3041.69V3058.45C4040.11 3070.21 4019.13 3083.98 3975.51 3086.42C3954.2 3087.42 3934 3084.2 3924.46 3065.22Z" fill="#37474F"/>
<path d="M3959.09 1475.95C3959.09 1475.95 3929.45 1805.26 3919.91 2096.83C3910.36 2388.4 3918.91 2764.66 3918.91 2764.66C3918.91 2764.66 3948.99 2786.19 4015.25 2789.19C4081.51 2792.18 4104.04 2770.1 4104.04 2770.1C4104.04 2770.1 4144.55 2637.91 4150.88 2544.9C4154.89 2494.55 4154.89 2443.96 4150.88 2393.62L4210.03 2004.49C4210.03 2004.49 4285.06 2387.62 4293.61 2433.91C4302.16 2480.19 4373.97 2889.63 4373.97 2889.63C4373.97 2889.63 4402.16 2915.6 4474.52 2914.27C4538.56 2913.05 4557.1 2890.08 4557.1 2890.08C4557.1 2890.08 4572.53 2639.02 4568.98 2531.8C4565.98 2437.24 4544.34 2361.99 4540.01 2300.61C4535.68 2239.23 4533.24 1889.95 4528.91 1756.76C4524.58 1623.57 4513.48 1509.25 4399.49 1348.98L3959.09 1475.95Z" fill="#455A64"/>
<path d="M4210.48 2004.82L4161.2 1760.64C4161.2 1760.64 4075.4 1738.44 4035.34 1685.83C4035.34 1685.83 4046.43 1743.99 4135.23 1781.18L4187.61 2024.02L4169.41 2275.08L4210.48 2004.82Z" fill="#37474F"/>
<path d="M3332.1 1415.24C3363.71 1420.06 3396 1417.67 3426.56 1408.25C3413.13 1401.54 3400.57 1393.23 3389.15 1383.5C3383.91 1379.29 3380.52 1373.2 3379.69 1366.53C3378.86 1359.86 3380.66 1353.12 3384.71 1347.76C3388.82 1343.32 3399.03 1353.64 3422.12 1360.19C3451.64 1368.51 3473.06 1370.29 3501.47 1386.72C3512.19 1392.95 3524.79 1395.16 3536.99 1392.93C3606.25 1379.95 3767.74 1304.14 3841.77 1264.63C3856.86 1203.03 3883.06 1112.46 3915.36 999.472C3945.21 895.364 3993.05 849.858 4069.41 851.523L4058.42 1077.61C4058.42 1077.61 4022.02 1233.77 3976.95 1361.3C3969.07 1383.5 3937.44 1409.36 3879.51 1430.89C3804.48 1458.75 3713.91 1485.05 3603.25 1515.35C3558.41 1528.12 3512.61 1537.22 3466.29 1542.55C3349.31 1552.54 3304.47 1520.35 3288.71 1497.26C3243.87 1433.55 3270.39 1402.92 3332.1 1415.24Z" fill="#FFA8A7"/>
<path d="M4266.19 849.857L4372.97 858.07C4363.77 901.465 4366.38 946.53 4380.51 988.576C4394.64 1030.62 4419.79 1068.11 4453.32 1097.14L4405.71 1288.93C4407.26 1312.69 4446.55 1392.6 4484.62 1478.5C4413.03 1574.4 4061.86 1607.14 3947.32 1522.9C3964.97 1432.55 3978.18 1363.96 3981.73 1329.67L3975.96 1205.69C3832.33 1087.93 4005.59 908.46 4069.41 851.411L4149.54 847.859L4266.19 849.857Z" fill="#BA68C8"/>
<path d="M4715.82 1805.37C4708.07 1799.32 4701.93 1791.46 4697.94 1782.48C4693.95 1773.5 4692.24 1763.67 4692.95 1753.87C4694.84 1736 4698.94 1713.58 4706.38 1704.92C4713.82 1696.27 4760.43 1632.89 4781.08 1669.74C4803.27 1709.92 4798.72 1726.23 4798.72 1726.23L4715.82 1805.37Z" fill="#F28F8F"/>
<path d="M4571.97 2652.45C4521.87 2650.78 4473.08 2636.01 4430.46 2609.6L3876.29 2289.51C3790.71 2240.12 3720.9 2119.47 3720.9 2020.58V1555.64C3720.85 1540.08 3716.7 1524.81 3708.89 1511.36C3701.07 1497.9 3689.86 1486.74 3676.37 1478.98C3662.88 1471.23 3647.59 1467.15 3632.03 1467.16C3616.47 1467.18 3601.19 1471.28 3587.71 1479.06L3393.7 1591.38C3391.18 1592.99 3388.35 1594.07 3385.4 1594.55C3382.44 1595.04 3379.42 1594.92 3376.51 1594.21C3373.6 1593.5 3370.87 1592.2 3368.48 1590.41C3366.08 1588.61 3364.07 1586.35 3362.58 1583.76C3361.08 1581.17 3360.12 1578.3 3359.76 1575.33C3359.4 1572.35 3359.64 1569.34 3360.47 1566.46C3361.31 1563.59 3362.72 1560.91 3364.61 1558.59C3366.51 1556.28 3368.85 1554.37 3371.5 1552.98L3566.07 1440.55C3586.3 1428.87 3609.24 1422.71 3632.6 1422.7C3655.96 1422.69 3678.91 1428.82 3699.15 1440.48C3719.39 1452.15 3736.21 1468.92 3747.92 1489.14C3759.62 1509.35 3765.81 1532.29 3765.85 1555.64V2020.58C3765.85 2103.82 3826.9 2209.26 3899.04 2251.11L4453.21 2570.98C4524.14 2611.94 4589.95 2619.04 4638.34 2591.18C4686.74 2563.32 4713.48 2502.39 4713.48 2420.81V1827.24C4713.48 1726.68 4777.75 1610.81 4859.77 1563.41L4995.07 1485.72C4997.59 1484.11 5000.42 1483.04 5003.37 1482.55C5006.33 1482.06 5009.35 1482.18 5012.26 1482.89C5015.16 1483.6 5017.9 1484.9 5020.29 1486.69C5022.69 1488.49 5024.69 1490.75 5026.19 1493.34C5027.69 1495.94 5028.65 1498.8 5029.01 1501.78C5029.37 1504.75 5029.13 1507.76 5028.29 1510.64C5027.46 1513.51 5026.05 1516.19 5024.16 1518.51C5022.26 1520.82 5019.92 1522.73 5017.26 1524.12L4881.97 1601.82C4814.71 1640.66 4757.88 1743.77 4757.88 1827.12V2420.7C4757.88 2519.04 4723.25 2593.18 4660.54 2629.47C4633.6 2644.89 4603.02 2652.83 4571.97 2652.45Z" fill="#37474F"/>
<path d="M3614.46 1623.46V1659.75C3614.46 1717.8 3573.73 1788.5 3523.34 1817.47L3187.26 2011.59L2845.52 1814.25V1518.35L3176.94 1364.96C3229.66 1340.66 3313.12 1344.43 3363.51 1373.4L3523.12 1465.63C3573.4 1494.71 3614.46 1565.41 3614.46 1623.46Z" fill="#37474F"/>
<path d="M3176.94 1364.96C3229.66 1340.66 3313.12 1344.43 3363.51 1373.4L3523.12 1465.63C3573.4 1494.6 3571.4 1537.88 3518.68 1562.3L3186.93 1715.47L2845.08 1518.24L3176.94 1364.96Z" fill="#455A64"/>
<path opacity="0.15" d="M3219.23 1644.43C3232.47 1653.07 3243.49 1664.71 3251.39 1678.4C3259.3 1692.09 3263.87 1707.45 3264.73 1723.24V1966.64L3187.04 2011.03L2845.3 1813.69V1518.35L2931.87 1478.39L3219.23 1644.43Z" fill="black"/>
<path d="M2816.11 1467.41C2821.23 1465.02 2826.9 1464.05 2832.52 1464.6C2838.14 1465.15 2843.51 1467.19 2848.08 1470.51L3184.15 1664.63C3197.41 1673.28 3208.45 1684.93 3216.35 1698.64C3224.26 1712.36 3228.82 1727.74 3229.66 1743.55V2033.01C3230.26 2038.64 3229.35 2044.33 3227.01 2049.48C3224.66 2054.64 3220.98 2059.07 3216.34 2062.31C3208.57 2066.64 3181.16 2082.51 3173.5 2087.06C3168.36 2089.44 3162.68 2090.41 3157.04 2089.86C3151.4 2089.32 3146.01 2087.28 3141.42 2083.95L2805.23 1889.83C2791.99 1881.19 2780.97 1869.56 2773.07 1855.87C2765.16 1842.18 2760.59 1826.82 2759.73 1811.03V1521.57C2759.14 1515.94 2760.05 1510.25 2762.37 1505.08C2764.69 1499.92 2768.33 1495.46 2772.94 1492.16L2816.11 1467.41Z" fill="#37474F"/>
<path d="M3141.42 1689.27L2805.23 1495.26C2780.15 1480.72 2759.73 1492.49 2759.73 1521.57V1811.03C2760.59 1826.82 2765.16 1842.18 2773.07 1855.87C2780.97 1869.56 2791.99 1881.19 2805.23 1889.83L3141.42 2083.96C3166.51 2098.49 3186.93 2086.73 3186.93 2057.65V1768.19C3186.06 1752.39 3181.49 1737.01 3173.59 1723.3C3165.68 1709.59 3154.66 1697.94 3141.42 1689.27Z" fill="#455A64"/>
<path d="M2743.3 2026.24V2076.3C2743.3 2096.61 2750.29 2110.7 2761.84 2117.36L2792.03 2134.79C2799.26 2138.31 2807.32 2139.8 2815.33 2139.09C2823.35 2138.39 2831.02 2135.52 2837.53 2130.79L3115.01 1970.3V1772.74L3084.82 1755.31L2806.79 1915.81C2788.27 1927.93 2772.88 1944.25 2761.85 1963.44C2750.82 1982.62 2744.46 2004.14 2743.3 2026.24ZM2869.05 1964.31C2870.11 1967.92 2870.71 1971.65 2870.83 1975.41C2870.04 1990.24 2865.75 2004.67 2858.33 2017.54C2850.9 2030.4 2840.54 2041.33 2828.1 2049.44C2824.64 2051.46 2820.9 2052.96 2817 2053.88C2816.03 2050.25 2815.5 2046.53 2815.44 2042.78C2816.25 2027.95 2820.53 2013.51 2827.96 2000.65C2835.38 1987.79 2845.73 1976.86 2858.18 1968.75C2861.62 1966.87 2865.27 1965.38 2869.05 1964.31Z" fill="#BA68C8"/>
<path opacity="0.2" d="M2790.47 2133.68C2791.05 2134.19 2791.68 2134.63 2792.36 2135.01L2791.25 2134.34L2762.06 2117.36C2750.4 2110.93 2743.52 2096.83 2743.52 2076.41V2026.35C2744.25 2004.11 2750.71 1982.43 2762.28 1963.42L2792.47 1980.85C2781.01 1999.9 2774.6 2021.56 2773.82 2043.78V2093.83C2773.01 2106.8 2777.18 2119.58 2785.48 2129.57C2786.97 2131.13 2788.65 2132.51 2790.47 2133.68Z" fill="black"/>
<path opacity="0.5" d="M3115.01 1772.74L2837.53 1933.23C2818.71 1944.96 2803.19 1961.32 2792.47 1980.73L2762.28 1963.31C2773 1943.92 2788.47 1927.58 2807.23 1915.81L3085.26 1755.31L3115.01 1772.74Z" fill="white"/>
<path opacity="0.2" d="M2870.83 1975.41C2870.82 1971.4 2870.29 1967.41 2869.27 1963.53C2887.59 1958.54 2901.02 1969.97 2901.02 1992.83C2900.22 2007.65 2895.95 2022.07 2888.54 2034.93C2881.14 2047.8 2870.81 2058.73 2858.4 2066.86C2838.64 2077.96 2821.77 2072.3 2817.11 2053.88C2821.03 2053.02 2824.78 2051.52 2828.21 2049.44C2840.62 2041.3 2850.94 2030.36 2858.34 2017.5C2865.75 2004.64 2870.02 1990.22 2870.83 1975.41Z" fill="black"/>
<path d="M2487.03 1878.18V1928.35C2487.03 1948.55 2494.02 1962.75 2505.56 1969.3L2535.75 1986.84C2542.98 1990.28 2551 1991.71 2558.97 1990.97C2566.95 1990.23 2574.57 1987.34 2581.03 1982.62L2858.51 1822.02V1624.79L2828.32 1607.25L2550.84 1767.74C2532.29 1779.85 2516.84 1796.16 2505.75 1815.34C2494.67 1834.53 2488.25 1856.05 2487.03 1878.18ZM2612.78 1815.91C2613.79 1819.79 2614.31 1823.78 2614.33 1827.79C2613.53 1842.62 2609.24 1857.05 2601.82 1869.92C2594.39 1882.78 2584.04 1893.71 2571.6 1901.82C2568.09 1903.73 2564.36 1905.22 2560.5 1906.26C2559.44 1902.47 2558.92 1898.54 2558.95 1894.61C2559.74 1879.79 2564.02 1865.36 2571.42 1852.5C2578.83 1839.64 2589.15 1828.71 2601.57 1820.58C2605.07 1818.5 2608.84 1816.94 2612.78 1815.91Z" fill="#BA68C8"/>
<path opacity="0.2" d="M2537.08 1987.62H2536.53H2535.75L2505.56 1969.97C2493.91 1963.42 2487.03 1949.32 2487.03 1928.9V1878.85C2487.14 1868.15 2488.83 1857.53 2492.02 1847.32C2495.36 1836.4 2499.94 1825.9 2505.67 1816.03L2535.86 1833.34C2533 1838.29 2530.44 1843.4 2528.2 1848.66C2521.31 1863.57 2517.54 1879.74 2517.1 1896.16V1946.22C2516.16 1959.1 2520.12 1971.87 2528.2 1981.96C2530.82 1984.33 2533.82 1986.25 2537.08 1987.62Z" fill="black"/>
<path opacity="0.5" d="M2858.84 1624.79L2581.37 1785.28C2562.52 1796.98 2547 1813.34 2536.31 1832.78L2506.12 1815.47C2516.64 1796.07 2531.92 1779.65 2550.51 1767.74L2827.99 1607.25L2858.84 1624.79Z" fill="white"/>
<path opacity="0.2" d="M2614.22 1827.68C2614.24 1823.71 2613.76 1819.76 2612.78 1815.91C2630.98 1810.81 2644.52 1822.35 2644.52 1845.22C2643.72 1860.03 2639.45 1874.46 2632.05 1887.32C2624.64 1900.18 2614.31 1911.12 2601.9 1919.25C2582.03 1930.34 2565.27 1924.68 2560.61 1906.15C2564.54 1905.32 2568.3 1903.82 2571.71 1901.71C2584.12 1893.58 2594.43 1882.64 2601.82 1869.78C2609.2 1856.91 2613.45 1842.49 2614.22 1827.68Z" fill="black"/>
<path d="M2571.16 1692.94C2567.46 1692.95 2563.86 1691.72 2560.94 1689.44C2558.03 1687.17 2555.96 1683.98 2555.06 1680.4L2510.67 1506.36C2509.56 1502.08 2510.21 1497.53 2512.45 1493.73C2514.7 1489.92 2518.37 1487.16 2522.65 1486.05C2526.94 1484.95 2531.48 1485.59 2535.29 1487.84C2539.1 1490.09 2541.86 1493.76 2542.96 1498.04L2587.36 1672.18C2587.93 1674.3 2588.06 1676.5 2587.76 1678.67C2587.46 1680.84 2586.73 1682.92 2585.62 1684.8C2584.5 1686.69 2583.02 1688.33 2581.26 1689.63C2579.5 1690.93 2577.5 1691.87 2575.37 1692.38C2574 1692.74 2572.58 1692.93 2571.16 1692.94Z" fill="#E0E0E0"/>
<path d="M2446.18 1765.52C2442.44 1765.53 2438.8 1764.28 2435.86 1761.97L2270.6 1631.34C2268.77 1630.02 2267.23 1628.35 2266.07 1626.42C2264.91 1624.5 2264.15 1622.36 2263.85 1620.13C2263.54 1617.9 2263.68 1615.63 2264.27 1613.46C2264.86 1611.29 2265.89 1609.27 2267.28 1607.5C2268.68 1605.74 2270.41 1604.28 2272.39 1603.21C2274.37 1602.13 2276.54 1601.47 2278.78 1601.26C2281.02 1601.05 2283.28 1601.3 2285.42 1601.98C2287.56 1602.67 2289.54 1603.78 2291.24 1605.26L2456.5 1735.78C2459.96 1738.53 2462.19 1742.53 2462.71 1746.92C2463.23 1751.3 2461.99 1755.72 2459.28 1759.2C2457.73 1761.19 2455.74 1762.79 2453.47 1763.89C2451.2 1764.99 2448.7 1765.55 2446.18 1765.52Z" fill="#E0E0E0"/>
<path d="M2218.43 1924.91C2214.01 1925.07 2209.72 1923.47 2206.48 1920.46C2203.24 1917.45 2201.33 1913.28 2201.17 1908.87C2201.01 1904.45 2202.61 1900.15 2205.62 1896.92C2208.62 1893.68 2212.79 1891.77 2217.21 1891.61L2410.44 1876.63C2412.62 1876.44 2414.82 1876.7 2416.9 1877.37C2418.99 1878.05 2420.92 1879.13 2422.58 1880.55C2424.24 1881.98 2425.6 1883.72 2426.59 1885.67C2427.57 1887.63 2428.16 1889.76 2428.31 1891.94C2428.62 1896.34 2427.18 1900.67 2424.32 1904.02C2421.45 1907.36 2417.38 1909.44 2413 1909.81L2219.76 1924.8L2218.43 1924.91Z" fill="#E0E0E0"/>
<path d="M4866.87 1624.23C4863.11 1583.23 4857.03 1542.47 4848.67 1502.15C4823.42 1407.55 4789.77 1315.39 4748.11 1226.78C4729.58 1191.37 4687.73 1139.76 4658.1 1096.14C4616.15 1034.55 4586.62 1000.03 4554.77 958.184C4484.62 866.395 4454.88 861.068 4372.97 858.293C4361.87 887.483 4336.56 1007.13 4418.58 1103.8L4594.39 1289.16C4604.38 1305.25 4711.82 1488.94 4729.69 1556.75C4732.78 1568.81 4731.28 1581.59 4725.47 1592.6C4711.43 1623.69 4701.11 1656.32 4694.73 1689.83C4689.51 1713.36 4675.53 1732.01 4680.3 1735.67C4686.19 1739.61 4693.25 1741.44 4700.32 1740.88C4707.39 1740.32 4714.06 1737.39 4719.26 1732.56C4731.81 1719.09 4742.04 1703.64 4749.56 1686.83C4752.86 1686.62 4756.16 1687.09 4759.27 1688.22C4762.38 1689.35 4765.22 1691.11 4767.61 1693.4C4770 1695.68 4771.89 1698.44 4773.15 1701.5C4774.42 1704.55 4775.04 1707.83 4774.97 1711.14C4775.97 1724.79 4769.76 1743.77 4764.98 1767.41C4764.1 1772.07 4762.99 1777.4 4760.88 1790.28C4759.06 1798.97 4758.02 1807.81 4757.77 1816.69C4779.97 1820.8 4803.16 1807.26 4840.46 1772.3C4874.09 1739.66 4876.31 1696.82 4866.87 1624.23Z" fill="#FFA8A7"/>
<path d="M4285.28 795.917C4285.95 773.719 4358.09 721.776 4394.61 666.503C4427.91 615.225 4475.74 474.268 4363.64 429.206C4363.64 429.206 4387.84 361.613 4343.89 321.768C4299.94 281.922 4240.78 306.562 4231.45 323.211C4225.82 302.456 4213.64 284.072 4196.72 270.794C4179.81 257.517 4159.06 250.053 4137.56 249.513C4116.56 247.932 4095.69 253.991 4078.81 266.574C4061.92 279.158 4050.15 297.419 4045.66 317.994C4027.92 310.316 4008.08 308.971 3989.47 314.185C3970.86 319.398 3954.6 330.854 3943.44 346.63C3902.26 403.345 3956.87 455.289 3956.87 455.289C3949.78 460.068 3944.13 466.682 3940.52 474.423C3936.9 482.164 3935.45 490.742 3936.33 499.241C3939.55 523.215 3962.53 529.097 3965.19 541.084C3965.71 543.592 3965.39 546.2 3964.29 548.511C3963.19 550.823 3961.36 552.712 3959.09 553.892C3956.82 555.072 3954.22 555.479 3951.7 555.05C3949.17 554.621 3946.86 553.381 3945.1 551.517C3945.7 554.647 3946.91 557.627 3948.66 560.288C3950.42 562.948 3952.68 565.236 3955.32 567.021C3957.96 568.805 3960.92 570.05 3964.05 570.684C3967.17 571.319 3970.39 571.33 3973.51 570.718C3999.37 569.275 4022.46 534.092 4022.46 534.092L4285.28 795.917Z" fill="#263238"/>
<path d="M4049.99 422.103C4016.69 436.531 3985.28 487.254 3985.72 629.099C3985.72 749.301 4023.02 779.712 4041.22 788.702C4059.42 797.693 4096.16 793.031 4131.56 787.593V856.739C4131.56 856.739 4067.52 936.208 4124.9 975.72C4272.74 949.86 4284.06 852.855 4284.06 852.855L4286.73 702.13C4286.73 702.13 4307.04 723.44 4342.22 692.141C4371.75 666.28 4382.4 621.995 4360.2 597.578C4338.01 573.16 4309.59 571.273 4283.84 598.466C4283.84 598.466 4236.67 601.573 4165.75 557.066C4094.83 512.559 4069.52 467.386 4049.99 422.103Z" fill="#FFA8A7"/>
<path d="M4135.12 704.351C4135.27 706.643 4134.96 708.942 4134.21 711.115C4133.46 713.287 4132.29 715.289 4130.76 717.004C4129.23 718.719 4127.38 720.112 4125.31 721.103C4123.23 722.094 4120.98 722.662 4118.69 722.775C4115.13 723.061 4111.57 722.275 4108.46 720.519C4105.36 718.762 4102.85 716.115 4101.26 712.919C4099.67 709.724 4099.07 706.125 4099.55 702.587C4100.02 699.05 4101.54 695.736 4103.92 693.071C4106.29 690.407 4109.41 688.516 4112.87 687.64C4116.33 686.764 4119.98 686.945 4123.33 688.158C4126.69 689.372 4129.61 691.563 4131.71 694.449C4133.81 697.335 4134.99 700.784 4135.12 704.351Z" fill="#B16668"/>
<path d="M4043.77 588.032C4043.75 591.16 4042.8 594.211 4041.06 596.809C4039.32 599.406 4036.86 601.436 4033.97 602.645C4031.09 603.855 4027.91 604.193 4024.84 603.616C4021.77 603.039 4018.93 601.572 4016.68 599.399C4014.43 597.225 4012.87 594.44 4012.19 591.387C4011.51 588.335 4011.74 585.15 4012.85 582.227C4013.96 579.304 4015.91 576.771 4018.44 574.942C4020.98 573.114 4024 572.069 4027.12 571.939C4029.27 571.895 4031.41 572.277 4033.42 573.063C4035.42 573.849 4037.25 575.024 4038.8 576.52C4040.34 578.016 4041.58 579.804 4042.43 581.779C4043.29 583.755 4043.74 585.88 4043.77 588.032Z" fill="#263238"/>
<path d="M4166.64 595.358C4166.79 597.651 4166.48 599.95 4165.73 602.122C4164.98 604.295 4163.81 606.297 4162.28 608.011C4160.75 609.726 4158.9 611.119 4156.83 612.11C4154.75 613.101 4152.5 613.669 4150.21 613.782C4145.57 613.812 4141.1 612.012 4137.78 608.771C4134.45 605.53 4132.54 601.11 4132.45 596.468C4132.38 594.223 4132.75 591.986 4133.54 589.885C4134.33 587.783 4135.53 585.858 4137.07 584.219C4138.6 582.581 4140.44 581.26 4142.49 580.334C4144.54 579.408 4146.74 578.893 4148.99 578.821C4151.23 578.748 4153.47 579.118 4155.57 579.909C4157.67 580.701 4159.6 581.899 4161.24 583.434C4162.88 584.97 4164.2 586.813 4165.12 588.859C4166.05 590.905 4166.56 593.113 4166.64 595.358Z" fill="#263238"/>
<path d="M4032.67 524.436L3998.82 544.303C4000.03 546.591 4001.7 548.607 4003.72 550.224C4005.74 551.84 4008.07 553.024 4010.57 553.701C4013.07 554.377 4015.68 554.533 4018.24 554.157C4020.8 553.781 4023.26 552.883 4025.46 551.517C4029.91 548.794 4033.14 544.462 4034.48 539.42C4035.83 534.378 4035.18 529.012 4032.67 524.436Z" fill="#263238"/>
<path d="M4284.51 578.932V645.526C4280.24 645.634 4275.99 644.868 4272.03 643.273C4268.06 641.679 4264.47 639.29 4261.47 636.254C4258.46 633.218 4256.11 629.599 4254.56 625.62C4253 621.64 4252.28 617.385 4252.43 613.117C4252.47 604.419 4255.8 596.059 4261.75 589.716C4267.7 583.374 4275.83 579.521 4284.51 578.932Z" fill="#263238"/>
<path d="M4087.5 572.161L4080.73 668.056L4030.12 656.181L4087.5 572.161Z" fill="#F28F8F"/>
<path d="M4132.01 787.815C4169.19 783.486 4245.99 762.176 4258.54 730.877C4253.57 746.558 4243.97 760.37 4231.01 770.5C4207.81 790.479 4131.9 811.123 4131.9 811.123L4132.01 787.815Z" fill="#F28F8F"/>
<path d="M4578.96 46.1797C4593.13 51.5857 4606.41 59.0668 4618.37 68.3777C4629.95 76.8468 4639.92 87.3369 4647.78 99.3439C4655.26 110.894 4660.18 123.913 4662.21 137.524C4664.21 152.052 4662.41 166.851 4656.99 180.478C4653.12 191.387 4647.12 201.421 4639.34 210.001C4632.4 217.315 4624.43 223.595 4615.7 228.647C4607.2 233.502 4598.29 237.588 4589.06 240.856L4562.87 250.29C4555.17 253.074 4547.73 256.567 4540.67 260.723C4534.02 264.069 4528.44 269.224 4524.58 275.596C4522.81 278.571 4520.28 281.022 4517.25 282.699C4515.81 283.497 4514.2 283.961 4512.54 284.057C4510.89 284.153 4509.24 283.879 4507.71 283.254L4473.08 270.268C4471.44 269.66 4469.93 268.728 4468.65 267.527C4467.38 266.325 4466.35 264.88 4465.64 263.276C4464.88 261.741 4464.48 260.051 4464.48 258.337C4464.48 256.623 4464.88 254.933 4465.64 253.398C4470.09 242.719 4476.66 233.053 4484.96 224.985C4492.48 217.914 4500.87 211.835 4509.93 206.893C4518.68 202.196 4527.81 198.26 4537.23 195.128C4546.56 192.021 4555.21 189.024 4563.32 185.916C4570.63 183.23 4577.66 179.808 4584.29 175.705C4589.99 172.091 4594.36 166.713 4596.72 160.388C4598.91 154.849 4599.71 148.858 4599.05 142.938C4598.4 137.018 4596.3 131.349 4592.95 126.425C4584.6 114.298 4572.46 105.281 4558.43 100.787C4546.22 95.9265 4532.8 94.971 4520.02 98.0518C4507.24 101.133 4495.72 108.098 4487.07 117.99C4484.85 120.329 4482.26 122.28 4479.41 123.762C4476.33 124.727 4473 124.489 4470.08 123.096L4433.23 109.222C4431.92 108.766 4430.71 108.049 4429.68 107.115C4428.65 106.18 4427.82 105.047 4427.24 103.784C4426.6 102.488 4426.27 101.065 4426.27 99.6214C4426.27 98.1782 4426.6 96.7544 4427.24 95.4593C4432.12 84.1423 4439.75 74.2232 4449.44 66.6019C4460.22 57.633 4472.51 50.6438 4485.73 45.9577C4500.26 40.8264 4515.51 38.0536 4530.91 37.7445C4547.32 37.434 4563.64 40.2983 4578.96 46.1797ZM4499.94 311.446C4501.56 312.021 4503.04 312.931 4504.28 314.116C4505.52 315.302 4506.5 316.737 4507.15 318.327C4507.84 319.903 4508.19 321.603 4508.19 323.322C4508.19 325.04 4507.84 326.74 4507.15 328.316L4492.06 368.384C4491.48 370.003 4490.57 371.482 4489.39 372.725C4488.2 373.968 4486.77 374.947 4485.18 375.598C4483.6 376.282 4481.9 376.635 4480.18 376.635C4478.47 376.635 4476.77 376.282 4475.19 375.598L4436.01 360.836C4434.39 360.261 4432.91 359.351 4431.67 358.166C4430.42 356.98 4429.45 355.545 4428.8 353.955C4428.11 352.379 4427.76 350.679 4427.76 348.96C4427.76 347.242 4428.11 345.542 4428.8 343.966L4443.89 303.898C4444.48 302.275 4445.4 300.789 4446.58 299.53C4447.76 298.271 4449.19 297.265 4450.77 296.573C4452.35 295.914 4454.05 295.574 4455.77 295.574C4457.48 295.574 4459.18 295.914 4460.76 296.573L4499.94 311.446Z" fill="#BA68C8"/>
<path d="M4598.17 524.546C4599.32 525.682 4600.24 527.038 4600.87 528.534C4601.5 530.03 4601.82 531.636 4601.82 533.258C4601.82 534.881 4601.5 536.487 4600.87 537.983C4600.24 539.479 4599.32 540.835 4598.17 541.971L4570.42 571.272C4569.31 572.455 4567.97 573.399 4566.48 574.048C4564.99 574.696 4563.39 575.036 4561.76 575.046C4560.14 575.105 4558.51 574.841 4556.99 574.27C4555.47 573.698 4554.07 572.83 4552.88 571.716L4524.58 544.524C4523.4 543.412 4522.45 542.071 4521.8 540.583C4521.16 539.094 4520.82 537.49 4520.81 535.867C4520.72 534.237 4520.97 532.608 4521.55 531.08C4522.12 529.553 4523 528.159 4524.14 526.987L4551.99 497.797C4554.32 495.513 4557.45 494.233 4560.71 494.233C4563.97 494.233 4567.1 495.513 4569.42 497.797L4598.17 524.546ZM4764.65 323.321C4774.97 333.099 4783.83 344.313 4790.96 356.618C4797.82 368.277 4802.59 381.049 4805.05 394.355C4807.13 407.109 4806.49 420.158 4803.17 432.646C4799.62 444.462 4793.66 455.41 4785.65 464.792C4777.65 474.175 4767.77 481.787 4756.66 487.142C4747.98 490.976 4738.78 493.518 4729.36 494.689C4720.18 495.721 4710.94 495.981 4701.72 495.466L4675.53 494.023C4667.71 493.601 4659.88 493.861 4652.11 494.8C4645.15 495.569 4638.54 498.259 4633.02 502.57C4630.41 504.543 4627.29 505.736 4624.03 506.01C4622.47 506.185 4620.89 506.006 4619.41 505.488C4617.93 504.969 4616.59 504.123 4615.48 503.014L4590.29 479.04C4587.86 476.751 4586.43 473.604 4586.29 470.272C4586.13 468.632 4586.37 466.978 4586.99 465.451C4587.61 463.925 4588.59 462.57 4589.84 461.503C4597.58 453.815 4606.79 447.774 4616.92 443.745C4626.04 440.359 4635.55 438.159 4645.23 437.197C4654.57 436.421 4663.96 436.421 4673.31 437.197C4682.56 438.011 4691.21 438.565 4699.28 438.861C4706.7 439.235 4714.14 438.826 4721.48 437.641C4727.79 436.659 4733.61 433.615 4738.01 428.983C4741.91 424.955 4744.77 420.045 4746.35 414.673C4747.94 409.3 4748.2 403.624 4747.11 398.128C4744.35 384.513 4737.13 372.209 4726.58 363.166C4717.72 354.496 4706.39 348.776 4694.15 346.789C4681.92 344.803 4669.36 346.646 4658.21 352.067C4655.47 353.272 4652.54 353.986 4649.55 354.176C4648.04 354.085 4646.56 353.684 4645.2 352.996C4643.84 352.309 4642.64 351.351 4641.67 350.18L4614.82 324.542C4612.88 322.793 4611.69 320.371 4611.49 317.771C4611.42 316.399 4611.64 315.027 4612.13 313.745C4612.63 312.464 4613.39 311.302 4614.37 310.335C4622.77 302.351 4632.97 296.524 4644.12 293.354C4656.77 289.569 4670 288.029 4683.18 288.803C4697.7 289.687 4711.98 292.911 4725.47 298.348C4739.9 304.037 4753.07 312.524 4764.21 323.321H4764.65Z" fill="#BA68C8"/>
<g opacity="0.6">
<path d="M4598.17 524.546C4599.32 525.682 4600.24 527.038 4600.87 528.534C4601.5 530.03 4601.82 531.636 4601.82 533.258C4601.82 534.881 4601.5 536.487 4600.87 537.983C4600.24 539.479 4599.32 540.835 4598.17 541.971L4570.42 571.272C4569.31 572.455 4567.97 573.399 4566.48 574.048C4564.99 574.696 4563.39 575.036 4561.76 575.046C4560.14 575.105 4558.51 574.841 4556.99 574.27C4555.47 573.698 4554.07 572.83 4552.88 571.716L4524.58 544.524C4523.4 543.412 4522.45 542.071 4521.8 540.583C4521.16 539.094 4520.82 537.49 4520.81 535.867C4520.72 534.237 4520.97 532.608 4521.55 531.08C4522.12 529.553 4523 528.159 4524.14 526.987L4551.99 497.797C4554.32 495.513 4557.45 494.233 4560.71 494.233C4563.97 494.233 4567.1 495.513 4569.42 497.797L4598.17 524.546ZM4764.65 323.321C4774.97 333.099 4783.83 344.313 4790.96 356.618C4797.82 368.277 4802.59 381.049 4805.05 394.355C4807.13 407.109 4806.49 420.158 4803.17 432.646C4799.62 444.462 4793.66 455.41 4785.65 464.792C4777.65 474.175 4767.77 481.787 4756.66 487.142C4747.98 490.976 4738.78 493.518 4729.36 494.689C4720.18 495.721 4710.94 495.981 4701.72 495.466L4675.53 494.023C4667.71 493.601 4659.88 493.861 4652.11 494.8C4645.15 495.569 4638.54 498.259 4633.02 502.57C4630.41 504.543 4627.29 505.736 4624.03 506.01C4622.47 506.185 4620.89 506.006 4619.41 505.488C4617.93 504.969 4616.59 504.123 4615.48 503.014L4590.29 479.04C4587.86 476.751 4586.43 473.604 4586.29 470.272C4586.13 468.632 4586.37 466.978 4586.99 465.451C4587.61 463.925 4588.59 462.57 4589.84 461.503C4597.58 453.815 4606.79 447.774 4616.92 443.745C4626.04 440.359 4635.55 438.159 4645.23 437.197C4654.57 436.421 4663.96 436.421 4673.31 437.197C4682.56 438.011 4691.21 438.565 4699.28 438.861C4706.7 439.235 4714.14 438.826 4721.48 437.641C4727.79 436.659 4733.61 433.615 4738.01 428.983C4741.91 424.955 4744.77 420.045 4746.35 414.673C4747.94 409.3 4748.2 403.624 4747.11 398.128C4744.35 384.513 4737.13 372.209 4726.58 363.166C4717.72 354.496 4706.39 348.776 4694.15 346.789C4681.92 344.803 4669.36 346.646 4658.21 352.067C4655.47 353.272 4652.54 353.986 4649.55 354.176C4648.04 354.085 4646.56 353.684 4645.2 352.996C4643.84 352.309 4642.64 351.351 4641.67 350.18L4614.82 324.542C4612.88 322.793 4611.69 320.371 4611.49 317.771C4611.42 316.399 4611.64 315.027 4612.13 313.745C4612.63 312.464 4613.39 311.302 4614.37 310.335C4622.77 302.351 4632.97 296.524 4644.12 293.354C4656.77 289.569 4670 288.029 4683.18 288.803C4697.7 289.687 4711.98 292.911 4725.47 298.348C4739.9 304.037 4753.07 312.524 4764.21 323.321H4764.65Z" fill="white"/>
</g>
<path d="M648.921 3315.17C684.104 3336.59 730.831 3337.37 774.894 3321.94L808.191 3088.86L652.805 3049.12L648.921 3315.17Z" fill="#FFA8A7"/>
<path d="M899.647 3538.26C903.532 3542.25 901.201 3571.55 896.428 3578.1C891.656 3584.65 864.907 3606.85 815.628 3607.74C768.679 3608.51 726.836 3599.97 700.642 3580.99C674.448 3562.01 661.907 3542.14 660.686 3515.28C659.465 3488.42 663.904 3463.01 652.361 3441.81C640.819 3420.61 626.945 3402.85 623.393 3392.42C619.224 3373.52 619.224 3353.93 623.393 3335.03L899.647 3538.26Z" fill="#263238"/>
<path d="M785.66 3312.17C785.879 3322.29 787.295 3332.35 789.878 3342.14C795.93 3363.13 804.463 3383.32 815.295 3402.29C820.682 3412.2 826.726 3421.72 833.386 3430.82C846.594 3448.47 863.464 3463.23 877.782 3480.21C892.981 3496.3 902.121 3517.17 903.643 3539.26C903.643 3576.1 863.131 3586.43 832.165 3590.2C798.516 3594.31 764.373 3590.78 732.274 3579.88C715.475 3574.51 700.582 3564.4 689.38 3550.78C678.179 3537.16 671.144 3520.59 669.121 3503.07C667.9 3492.75 669.121 3482.43 668.455 3472.11C665.691 3448.42 657.07 3425.8 643.371 3406.29C635.407 3395 628.707 3382.86 623.393 3370.11C614.958 3346.91 624.059 3321.72 631.384 3299.41C637.711 3280.21 642.483 3257.01 649.587 3259.23C649.587 3263.11 649.587 3271.77 649.587 3271.77C651.585 3276.1 656.468 3279.21 657.689 3284.31C658.841 3289.58 660.437 3294.74 662.462 3299.74C665.484 3307.47 670.837 3314.06 677.778 3318.61C678.999 3304.73 680.22 3290.86 681.33 3277.1C681.015 3274.91 681.202 3272.68 681.878 3270.58C682.554 3268.47 683.701 3266.55 685.231 3264.96C686.761 3263.36 688.634 3262.14 690.708 3261.38C692.783 3260.61 695.003 3260.34 697.201 3260.56C723.237 3255.8 749.844 3255.01 776.115 3258.23C778.094 3258.38 780.025 3258.91 781.796 3259.81C783.567 3260.71 785.144 3261.94 786.437 3263.45C787.792 3266.39 788.218 3269.68 787.658 3272.88C786.284 3285.93 785.617 3299.05 785.66 3312.17Z" fill="#BA68C8"/>
<path opacity="0.2" d="M785.66 3312.17C785.879 3322.29 787.295 3332.35 789.878 3342.14C795.93 3363.13 804.463 3383.32 815.295 3402.29C820.682 3412.2 826.726 3421.72 833.386 3430.82C846.594 3448.47 863.464 3463.23 877.782 3480.21C892.981 3496.3 902.121 3517.17 903.643 3539.26C903.643 3576.1 863.131 3586.43 832.165 3590.2C798.516 3594.31 764.373 3590.78 732.274 3579.88C715.475 3574.51 700.582 3564.4 689.38 3550.78C678.179 3537.16 671.144 3520.59 669.121 3503.07C667.9 3492.75 669.121 3482.43 668.455 3472.11C665.691 3448.42 657.07 3425.8 643.371 3406.29C635.407 3395 628.707 3382.86 623.393 3370.11C614.958 3346.91 624.059 3321.72 631.384 3299.41C637.711 3280.21 642.483 3257.01 649.587 3259.23C649.587 3263.11 649.587 3271.77 649.587 3271.77C651.585 3276.1 656.468 3279.21 657.689 3284.31C658.841 3289.58 660.437 3294.74 662.462 3299.74C665.484 3307.47 670.837 3314.06 677.778 3318.61C678.999 3304.73 680.22 3290.86 681.33 3277.1C681.015 3274.91 681.202 3272.68 681.878 3270.58C682.554 3268.47 683.701 3266.55 685.231 3264.96C686.761 3263.36 688.634 3262.14 690.708 3261.38C692.783 3260.61 695.003 3260.34 697.201 3260.56C723.237 3255.8 749.844 3255.01 776.115 3258.23C778.094 3258.38 780.025 3258.91 781.796 3259.81C783.567 3260.71 785.144 3261.94 786.437 3263.45C787.792 3266.39 788.218 3269.68 787.658 3272.88C786.284 3285.93 785.617 3299.05 785.66 3312.17Z" fill="black"/>
<path d="M819.845 3410.29C806.749 3399.19 776.115 3397.52 759.245 3398.41C742.154 3398.98 725.478 3403.83 710.742 3412.51C708.565 3413.83 705.997 3414.37 703.47 3414.03C700.944 3413.68 698.612 3412.48 696.868 3410.62C695.843 3409.54 695.067 3408.24 694.595 3406.83C694.123 3405.42 693.966 3403.92 694.135 3402.44C694.304 3400.96 694.796 3399.53 695.575 3398.26C696.354 3396.99 697.401 3395.9 698.644 3395.08C714.954 3384.45 733.901 3378.57 753.362 3378.1C795.317 3377.43 806.416 3384.98 806.416 3384.98C806.416 3384.98 824.618 3398.3 819.845 3410.29Z" fill="#455A64"/>
<path d="M849.258 3449.58C832.609 3438.48 798.868 3438.48 781.998 3439.03C765.22 3439.83 748.948 3445.03 734.827 3454.13C732.639 3455.48 730.047 3456.04 727.496 3455.69C724.945 3455.35 722.593 3454.13 720.842 3452.24C719.804 3451.16 719.019 3449.86 718.544 3448.44C718.069 3447.02 717.916 3445.51 718.097 3444.02C718.277 3442.53 718.787 3441.11 719.588 3439.84C720.389 3438.57 721.462 3437.5 722.729 3436.7C739.134 3425.48 758.364 3419.09 778.224 3418.28C819.623 3417.5 829.945 3426.6 829.945 3426.6C834.705 3428.7 838.92 3431.86 842.267 3435.85C845.615 3439.83 848.006 3444.53 849.258 3449.58Z" fill="#455A64"/>
<path d="M739.045 3337.81C756.573 3335.71 774.346 3338.16 790.655 3344.91C797.647 3349.46 801.754 3361.12 796.981 3363.78C782.587 3357.1 766.763 3354.09 750.921 3355.01C735.409 3355.7 720.13 3359.04 705.748 3364.89C702.085 3366.22 697.867 3368.22 694.649 3370C693.463 3370.6 692.164 3370.96 690.834 3371.04C689.504 3371.12 688.172 3370.93 686.921 3370.47C685.67 3370.01 684.527 3369.3 683.565 3368.38C682.603 3367.45 681.842 3366.34 681.33 3365.11C680.634 3363.06 680.674 3360.83 681.443 3358.8C682.213 3356.78 683.664 3355.09 685.548 3354.01C702.024 3344.87 720.262 3339.34 739.045 3337.81Z" fill="#455A64"/>
<path d="M1086.89 3227.6C1113.97 3295.41 1156.37 3274.55 1220.96 3235.48L1230.73 3003.95L1066.35 2988.75L1086.89 3227.6Z" fill="#FFA8A7"/>
<path d="M1468.91 3390.86C1471.91 3401.76 1470.64 3413.39 1465.36 3423.38C1460.26 3432.71 1408.87 3458.23 1341.72 3450.02C1291.93 3443.89 1244.7 3424.49 1204.98 3393.86C1180.23 3375.43 1153.7 3370.88 1120.41 3367.11C1087.11 3363.34 1062.14 3351.79 1055.59 3335.81C1049.04 3319.83 1059.03 3293.41 1059.03 3293.41L1468.91 3390.86Z" fill="#263238"/>
<path d="M1207.42 3177.43C1213.49 3176.15 1219.46 3174.44 1225.29 3172.32C1228.55 3171.12 1232.13 3171.12 1235.39 3172.32C1239.61 3174.21 1240.94 3179.32 1241.94 3183.42C1242.89 3193.47 1244.82 3203.39 1247.71 3213.06C1252.25 3221.08 1258.28 3228.16 1265.47 3233.92C1281.47 3248.24 1298.91 3260.85 1317.52 3271.55C1338.95 3284.65 1360.03 3294.97 1382.12 3306.4C1404.21 3317.83 1435.17 3326.04 1452.71 3339.7C1478.13 3359.01 1479.13 3403.96 1448.05 3419.94C1421.3 3433.82 1352.04 3446.69 1281.56 3422.49C1243.05 3409.29 1201.98 3365.22 1150.93 3358.45C1118.41 3354.24 1075.12 3349.13 1055.48 3323.27C1048.37 3312.17 1054.59 3279.98 1060.36 3242.36C1065.58 3209.06 1070.35 3155.79 1081.12 3159.34L1081.89 3169.55L1094.99 3185.2C1097.86 3188.25 1100.9 3191.14 1104.09 3193.86C1107.6 3197.96 1111.3 3201.88 1115.19 3205.62C1120.47 3210.14 1127.03 3212.9 1133.95 3213.5C1137.23 3213.71 1140.5 3212.98 1143.38 3211.39C1148.93 3208.28 1149.71 3200.96 1154.48 3196.41C1159.64 3191.1 1165.84 3186.91 1172.68 3184.09C1182.19 3180.7 1192.13 3178.69 1202.21 3178.09C1203.96 3177.99 1205.7 3177.76 1207.42 3177.43Z" fill="#BA68C8"/>
<path opacity="0.2" d="M1207.42 3177.43C1213.49 3176.15 1219.46 3174.44 1225.29 3172.32C1228.55 3171.12 1232.13 3171.12 1235.39 3172.32C1239.61 3174.21 1240.94 3179.32 1241.94 3183.42C1242.89 3193.47 1244.82 3203.39 1247.71 3213.06C1252.25 3221.08 1258.28 3228.16 1265.47 3233.92C1281.47 3248.24 1298.91 3260.85 1317.52 3271.55C1338.95 3284.65 1360.03 3294.97 1382.12 3306.4C1404.21 3317.83 1435.17 3326.04 1452.71 3339.7C1478.13 3359.01 1479.13 3403.96 1448.05 3419.94C1421.3 3433.82 1352.04 3446.69 1281.56 3422.49C1243.05 3409.29 1201.98 3365.22 1150.93 3358.45C1118.41 3354.24 1075.12 3349.13 1055.48 3323.27C1048.37 3312.17 1054.59 3279.98 1060.36 3242.36C1065.58 3209.06 1070.35 3155.79 1081.12 3159.34L1081.89 3169.55L1094.99 3185.2C1097.86 3188.25 1100.9 3191.14 1104.09 3193.86C1107.6 3197.96 1111.3 3201.88 1115.19 3205.62C1120.47 3210.14 1127.03 3212.9 1133.95 3213.5C1137.23 3213.71 1140.5 3212.98 1143.38 3211.39C1148.93 3208.28 1149.71 3200.96 1154.48 3196.41C1159.64 3191.1 1165.84 3186.91 1172.68 3184.09C1182.19 3180.7 1192.13 3178.69 1202.21 3178.09C1203.96 3177.99 1205.7 3177.76 1207.42 3177.43Z" fill="black"/>
<path d="M1288.11 3251.79C1285.98 3247.18 1282.73 3243.18 1278.66 3240.14C1274.59 3237.09 1269.83 3235.11 1264.8 3234.37C1250.15 3230.82 1223.4 3240.36 1206.42 3252.9C1204.81 3254.08 1203.51 3255.62 1202.63 3257.42C1201.76 3259.21 1201.34 3261.19 1201.4 3263.18C1201.47 3265.17 1202.02 3267.12 1203.01 3268.85C1204 3270.58 1205.4 3272.04 1207.09 3273.1C1209.23 3274.39 1211.71 3275.01 1214.2 3274.87C1216.7 3274.73 1219.09 3273.85 1221.07 3272.33C1239.85 3256.93 1263.94 3249.56 1288.11 3251.79Z" fill="#455A64"/>
<path d="M1332.62 3280.32C1329.63 3275.59 1325.55 3271.66 1320.72 3268.84C1315.89 3266.02 1310.46 3264.4 1304.87 3264.11C1281.97 3263.88 1259.59 3270.92 1240.94 3284.2C1239.36 3285.29 1238.07 3286.75 1237.18 3288.45C1236.29 3290.16 1235.82 3292.05 1235.82 3293.97C1235.82 3295.89 1236.29 3297.78 1237.18 3299.48C1238.07 3301.18 1239.36 3302.64 1240.94 3303.74C1243.02 3304.99 1245.43 3305.57 1247.85 3305.42C1250.27 3305.26 1252.59 3304.36 1254.48 3302.85C1264.97 3293.45 1277.44 3286.54 1290.97 3282.64C1304.5 3278.74 1318.74 3277.94 1332.62 3280.32Z" fill="#455A64"/>
<path d="M1382.12 3306.29C1378.66 3301.88 1374.29 3298.27 1369.31 3295.7C1364.33 3293.14 1358.86 3291.67 1353.26 3291.42C1331.16 3291.59 1309.69 3298.74 1291.89 3311.84C1290.34 3312.98 1289.1 3314.49 1288.26 3316.22C1287.43 3317.95 1287.03 3319.86 1287.09 3321.78C1287.16 3323.7 1287.69 3325.58 1288.64 3327.25C1289.59 3328.92 1290.93 3330.33 1292.55 3331.37C1294.57 3332.73 1296.97 3333.39 1299.4 3333.25C1301.82 3333.11 1304.14 3332.18 1305.98 3330.59C1315.89 3320.87 1327.94 3313.61 1341.16 3309.39C1354.38 3305.17 1368.41 3304.11 1382.12 3306.29Z" fill="#455A64"/>
<path d="M644.592 2690.29C649.587 2578.53 673.338 2520.37 676.668 2489.4C676.668 2489.4 685.769 1874.52 700.753 1687.94L1251.26 1664.52C1259.37 1864.31 1266.69 2401.05 1262.36 2472.09C1258.26 2540.12 1230.62 3130.26 1230.62 3130.26C1152.93 3154.56 1070.02 3119.16 1070.02 3119.16C1070.02 3119.16 1023.84 2783.41 1016.3 2709.38C1010.94 2642.8 1012.65 2575.83 1021.4 2509.6L986.219 2031.57C986.219 2031.57 943.71 2402.27 922.733 2542.12C898.759 2702.06 795.316 3197.85 795.316 3197.85C720.953 3216.39 648.588 3184.31 648.588 3184.31C648.588 3184.31 637.267 2852.23 644.592 2690.29Z" fill="#455A64"/>
<path d="M986.33 2032.01L996.763 1966.08C1028.84 1961.31 1110.08 1910.59 1158.14 1866.19C1123.91 1917.99 1077.59 1960.69 1023.18 1990.61L1021.51 2509.82L986.33 2032.01Z" fill="#37474F"/>
<path d="M1212.08 1340.66C1174.68 1255.31 1110.31 1111.57 1110.31 1111.57L1093.99 878.494C1117.81 879.253 1141.56 881.365 1165.14 884.821C1199.76 890.259 1254.7 923.334 1279.79 985.71C1298.55 1031.99 1395.99 1314.35 1395.99 1314.35L1565.81 1224.89C1609.32 1197.26 1624.74 1151.42 1652.49 1125C1680.24 1098.59 1707.99 1094.59 1738.73 1073.39C1769.48 1052.19 1781.57 1035.21 1789.34 1056.41C1797.11 1077.61 1762.71 1110.13 1756.05 1118.23C1749.39 1126.33 1715.98 1143.65 1758.6 1145.87C1801.22 1148.09 1887.46 1106.58 1908.1 1099.48C1928.75 1092.37 1926.97 1116.9 1916.2 1132.11C1905.44 1147.31 1904.33 1191.93 1886.35 1216.9C1867.26 1243.54 1856.94 1254.97 1815.98 1270.84C1777.91 1285.49 1699 1289.27 1658.37 1312.69C1617.75 1336.11 1519.42 1425.01 1453.82 1470.63C1365.81 1531.89 1316.3 1535.89 1281.79 1487.05C1247.27 1438.22 1225.29 1370.73 1212.08 1340.66Z" fill="#FFA8A7"/>
<path d="M1071.02 873.499C1128.73 869.06 1196.77 872.611 1234.39 906.796C1264.47 934.211 1275.79 951.192 1309.31 1045.98C1331.51 1109.57 1379.01 1256.08 1379.01 1256.08C1313.79 1270.8 1255.26 1306.66 1212.53 1358.08L1104.31 1114.9L1071.02 873.499Z" fill="#E0E0E0"/>
<path d="M1395.99 1313.8C1366.75 1324.15 1341.58 1343.6 1324.18 1369.29C1324.18 1369.29 1328.29 1324.9 1390.78 1298.37L1395.99 1313.8Z" fill="#F28F8F"/>
<path d="M932.833 863.066C905.496 861.939 878.146 864.933 851.7 871.946C800.977 885.375 710.076 910.903 710.076 910.903C681.219 925.887 670.009 975.832 663.461 1004.58C642.594 1096.59 696.758 1304.25 705.082 1385.16C713.406 1466.07 695.426 1713.92 695.426 1713.92C757.469 1785.84 1093.66 1833.56 1257.37 1713.92C1257.37 1713.92 1264.47 1144.87 1248.38 1063.18C1223.96 939.539 1187.67 880.825 1059.69 873.389L932.833 863.066Z" fill="#F5F5F5"/>
<path d="M1004.64 557.844L968.128 577.934C965.602 572.906 965.079 567.107 966.666 561.708C968.252 556.31 971.829 551.716 976.674 548.854C979.087 547.544 981.741 546.736 984.476 546.481C987.21 546.225 989.967 546.527 992.582 547.367C995.196 548.207 997.613 549.569 999.686 551.37C1001.76 553.171 1003.45 555.373 1004.64 557.844Z" fill="#263238"/>
<path d="M1163.47 572.495L1130.17 546.856C1131.74 544.604 1133.74 542.694 1136.07 541.242C1138.4 539.791 1140.99 538.828 1143.7 538.413C1146.41 537.997 1149.18 538.138 1151.83 538.826C1154.49 539.515 1156.97 540.736 1159.14 542.416C1163.55 545.939 1166.46 551.011 1167.26 556.599C1168.06 562.186 1166.71 567.87 1163.47 572.495Z" fill="#263238"/>
<path d="M836.827 441.638C836.827 441.638 797.537 447.076 783.108 477.044C770.677 502.793 775.117 564.948 791.876 632.429C801.347 676.214 815.487 718.855 834.052 759.624C840.611 771.175 851.328 779.789 864.02 783.709L861.911 703.13L859.025 647.635C859.025 647.635 894.875 598.578 898.87 558.843C903.976 507.122 893.099 485.923 893.099 485.923L836.827 441.638Z" fill="#263238"/>
<path d="M900.202 519.331C900.349 559.1 916.266 597.188 944.46 625.236C972.654 653.285 1010.82 669.004 1050.59 668.945C1133.39 668.945 1195.55 600.686 1194.88 517.777C1194.21 434.867 1132.06 368.495 1049.15 368.828C1009.47 369.122 971.518 385.122 943.603 413.327C915.689 441.533 900.084 479.648 900.202 519.331Z" fill="#263238"/>
<path d="M861.91 638.201C848.37 649.965 837.382 619.665 826.061 607.789C814.74 595.913 777.558 579.931 759.467 618.888C741.375 657.846 775.671 714.34 803.863 725.217C812.373 728.439 821.72 728.702 830.398 725.964C839.076 723.225 846.58 717.645 851.699 710.122V887.706C894.43 964.733 969.793 962.291 1010.08 957.963C1050.37 953.634 1059.14 911.791 1029.73 878.05V822.555C1052.11 826.068 1074.81 827.147 1097.43 825.774C1134.28 820.002 1152.93 792.477 1164.03 752.187C1181.78 687.924 1189 580.042 1164.03 455.4C1122.74 423.435 979.56 428.762 892.877 483.703C899.647 595.469 874.785 626.547 861.91 638.201Z" fill="#FFA8A7"/>
<path d="M1171.35 393.69C1176.93 370.552 1179.43 346.781 1178.79 322.989C1178.79 313.666 1176.46 302.345 1167.69 298.793C1158.92 295.242 1150.26 301.679 1142.72 306.785C1110.75 328.317 1071.02 334.421 1032.5 336.53C965.908 340.193 864.13 335.864 830.278 408.784C820.844 428.985 819.179 450.295 837.826 464.279C854.45 475.416 873.46 482.487 893.321 484.924C926.618 490.806 959.915 498.131 994.1 502.682C1028.28 507.233 1068.91 511.672 1102.76 501.239C1131.28 492.471 1160.25 484.924 1181.45 462.282C1199.82 442.539 1210.19 416.662 1210.53 389.694C1210.53 385.92 1209.75 381.148 1205.98 380.149C1204.09 379.912 1202.18 380.302 1200.54 381.259L1171.35 393.69Z" fill="#263238"/>
<path d="M1029.39 823.776C1029.39 823.776 947.04 807.461 918.404 792.255C901.442 783.468 887.519 769.777 878.448 752.965C882.666 769.76 890.215 785.536 900.646 799.359C921.845 826.218 1029.17 845.641 1029.17 845.641L1029.39 823.776Z" fill="#F28F8F"/>
<path d="M1012.86 612.34C1012.75 615.981 1011.57 619.508 1009.47 622.482C1007.36 625.457 1004.43 627.746 1001.04 629.064C997.643 630.382 993.935 630.671 990.377 629.894C986.819 629.118 983.568 627.31 981.031 624.697C978.495 622.084 976.783 618.782 976.112 615.202C975.441 611.623 975.839 607.925 977.257 604.57C978.674 601.215 981.049 598.353 984.084 596.339C987.119 594.326 990.68 593.252 994.321 593.25C999.306 593.338 1004.05 595.395 1007.53 598.972C1011 602.549 1012.92 607.355 1012.86 612.34Z" fill="#263238"/>
<path d="M1039.49 740.533C1039.58 745.224 1037.81 749.76 1034.57 753.15C1031.32 756.54 1026.87 758.508 1022.18 758.624C1017.46 758.537 1012.97 756.585 1009.68 753.195C1006.39 749.806 1004.58 745.253 1004.64 740.533C1004.6 738.215 1005.01 735.912 1005.86 733.754C1006.7 731.596 1007.97 729.626 1009.58 727.956C1011.18 726.286 1013.1 724.95 1015.23 724.023C1017.35 723.095 1019.64 722.596 1021.96 722.553C1026.66 722.64 1031.14 724.577 1034.42 727.942C1037.7 731.308 1039.52 735.832 1039.49 740.533Z" fill="#B16668"/>
<path d="M989.549 554.071L951.368 578.155C948.218 572.914 947.222 566.657 948.588 560.696C949.954 554.736 953.576 549.537 958.694 546.19C961.225 544.639 964.043 543.61 966.979 543.167C969.915 542.723 972.91 542.874 975.787 543.608C978.664 544.343 981.365 545.648 983.728 547.445C986.092 549.242 988.071 551.495 989.549 554.071Z" fill="#263238"/>
<path d="M1124.29 530.541L1164.47 548.521C1163.39 551.159 1161.78 553.549 1159.74 555.547C1157.71 557.546 1155.29 559.111 1152.64 560.149C1149.98 561.186 1147.14 561.674 1144.29 561.584C1141.44 561.493 1138.64 560.825 1136.06 559.62C1130.81 557.126 1126.69 552.755 1124.51 547.371C1122.33 541.986 1122.25 535.981 1124.29 530.541Z" fill="#263238"/>
<path d="M1145.49 606.79C1145.36 610.288 1144.2 613.671 1142.17 616.519C1140.13 619.366 1137.3 621.553 1134.04 622.807C1130.77 624.061 1127.2 624.328 1123.78 623.574C1120.37 622.82 1117.24 621.079 1114.81 618.566C1112.37 616.053 1110.72 612.88 1110.07 609.44C1109.42 606.001 1109.8 602.446 1111.15 599.217C1112.51 595.989 1114.78 593.229 1117.68 591.28C1120.59 589.331 1124.01 588.279 1127.51 588.255C1132.35 588.342 1136.95 590.341 1140.32 593.814C1143.69 597.287 1145.55 601.952 1145.49 606.79Z" fill="#263238"/>
<path d="M1054.7 575.492L1061.36 698.913L1119.85 683.374L1054.7 575.492Z" fill="#F28F8F"/>
<path d="M18.3868 1083.83C37.5881 1094.15 115.836 1149.2 158.345 1153.97C176.326 1155.97 181.209 1153.08 180.543 1148.42C179.655 1141.98 168.223 1132.33 165.448 1127.11C160.676 1118.01 132.151 1080.27 143.25 1060.52C154.349 1040.76 164.006 1059.63 190.421 1085.49C216.837 1111.35 243.918 1120.34 267.115 1150.42C290.312 1180.5 298.081 1228.11 336.484 1262.63L489.428 1367.07C489.428 1367.07 560.684 1036.43 591.983 997.475C625.28 956.52 768.124 1045.76 738.157 1175.95C708.189 1306.14 639.931 1532.11 592.427 1576.4C561.794 1605.15 497.308 1578.06 416.841 1506.48C353.244 1449.87 266.116 1364.96 229.268 1334.88C192.419 1304.81 115.836 1288.6 80.6522 1268.29C42.8046 1246.09 34.4803 1233.11 19.9406 1203.69C6.28888 1176.06 12.3933 1131.77 4.29106 1114.9C-3.81121 1098.03 -1.14744 1073.5 18.3868 1083.83Z" fill="#FFA8A7"/>
<path d="M710.076 910.902C759.134 941.536 761.576 986.154 764.017 1037.21C764.712 1096.97 755.255 1156.42 736.048 1213.02C715.293 1277.28 682.329 1394.6 682.329 1394.6C682.329 1394.6 554.246 1397.59 488.318 1340.66C488.318 1340.66 518.397 1214.13 539.596 1118.68C560.795 1023.22 586.544 921.668 710.076 910.902Z" fill="#E0E0E0"/>
<path d="M488.873 1367.29C523.835 1386.72 544.368 1428.45 550.694 1444.99C549.181 1425.73 543.12 1407.11 533.009 1390.65C522.899 1374.19 509.028 1360.37 492.536 1350.31L488.873 1367.29Z" fill="#F28F8F"/>
<path d="M1817.65 3766.12L2674.27 4260.69V4442.94L1817.65 3948.37V3766.12Z" fill="#BA68C8"/>
<path opacity="0.35" d="M1817.65 3766.12L2674.27 4260.69V4442.94L1817.65 3948.37V3766.12Z" fill="black"/>
<path d="M3530.89 3766.12L2674.27 4260.69V4442.94L3530.89 3948.37V3766.12Z" fill="#BA68C8"/>
<path opacity="0.2" d="M3530.89 3766.12L2674.27 4260.69V4442.94L3530.89 3948.37V3766.12Z" fill="black"/>
<path d="M3530.89 3766.12L2674.27 3271.66L1817.65 3766.12L2674.27 4260.69L3530.89 3766.12Z" fill="#BA68C8"/>
<path opacity="0.15" d="M3530.89 3766.12L2674.27 3271.66L1817.65 3766.12L2674.27 4260.69L3530.89 3766.12Z" fill="black"/>
<path opacity="0.1" d="M2674.27 4260.69V4208.64L1907.77 3766.12H1817.65L2674.27 4260.69Z" fill="black"/>
<path opacity="0.1" d="M2674.27 3271.66V3323.71L3440.76 3766.12H3530.89L2674.27 3271.66Z" fill="black"/>
<path d="M3530.89 3766.12H3440.76L2674.27 4208.64V4260.69L3530.89 3766.12Z" fill="#BA68C8"/>
<path d="M2674.27 3271.66V3323.71L1907.77 3766.12H1817.65L2674.27 3271.66Z" fill="#BA68C8"/>
<path d="M2677.37 3551.46L3045.42 3763.9C3072.94 3779.88 3072.94 3805.63 3045.42 3821.5L2770.94 3980.44C2755.47 3988.34 2738.36 3992.46 2720.99 3992.46C2703.63 3992.46 2686.51 3988.34 2671.05 3980.44L2303 3768.01C2275.48 3752.02 2275.48 3726.27 2303 3710.4L2577.59 3551.46C2593.04 3543.58 2610.14 3539.47 2627.48 3539.47C2644.83 3539.47 2661.92 3543.58 2677.37 3551.46Z" fill="#37474F"/>
<path d="M2770.94 3980.44L3036.31 3827.16L2677.37 3619.95C2661.88 3612.14 2644.78 3608.07 2627.43 3608.07C2610.08 3608.07 2592.97 3612.14 2577.48 3619.95L2312.11 3773.45L2671.05 3980.44C2686.51 3988.34 2703.63 3992.46 2720.99 3992.46C2738.36 3992.46 2755.47 3988.34 2770.94 3980.44Z" fill="#455A64"/>
<path d="M2455.06 3766.45L2616.11 3673.55C2619.1 3672.05 2622.41 3671.27 2625.76 3671.27C2629.12 3671.27 2632.42 3672.05 2635.42 3673.55L2655.18 3684.65C2660.5 3687.65 2660.5 3692.64 2655.18 3695.75L2494.13 3788.65C2491.15 3790.15 2487.86 3790.94 2484.53 3790.94C2481.19 3790.94 2477.9 3790.15 2474.93 3788.65L2455.17 3777.55C2454.02 3777.16 2453.01 3776.42 2452.3 3775.43C2451.59 3774.44 2451.2 3773.26 2451.18 3772.04C2451.17 3770.82 2451.54 3769.63 2452.23 3768.63C2452.93 3767.63 2453.91 3766.87 2455.06 3766.45Z" fill="#263238"/>
<path d="M2695.58 3905.52L2856.62 3812.62C2859.6 3811.12 2862.89 3810.34 2866.22 3810.34C2869.56 3810.34 2872.85 3811.12 2875.82 3812.62L2895.69 3823.72C2901.02 3826.72 2901.02 3831.71 2895.69 3834.82L2734.64 3927.72C2731.67 3929.22 2728.38 3930.01 2725.04 3930.01C2721.71 3930.01 2718.42 3929.22 2715.44 3927.72L2695.69 3916.62C2694.53 3916.23 2693.53 3915.49 2692.82 3914.5C2692.1 3913.51 2691.71 3912.33 2691.7 3911.11C2691.69 3909.89 2692.05 3908.7 2692.75 3907.7C2693.44 3906.7 2694.43 3905.94 2695.58 3905.52Z" fill="#263238"/>
<path d="M2302.12 4126.06C2301.21 4109.21 2296.33 4092.82 2287.89 4078.22C2279.44 4063.62 2267.66 4051.22 2253.5 4042.04C2248.61 4038.47 2242.84 4036.27 2236.81 4035.68C2230.78 4035.1 2224.7 4036.14 2219.21 4038.71L2198.23 4050.92C2193.29 4054.4 2189.37 4059.14 2186.87 4064.64C2184.38 4070.14 2183.39 4076.21 2184.02 4082.22C2184.94 4099.06 2189.81 4115.45 2198.24 4130.07C2206.66 4144.68 2218.41 4157.11 2232.53 4166.35C2237.44 4169.92 2243.23 4172.11 2249.28 4172.7C2255.33 4173.29 2261.42 4172.24 2266.93 4169.68L2287.8 4157.14C2292.71 4153.67 2296.61 4148.97 2299.13 4143.52C2301.64 4138.06 2302.67 4132.04 2302.12 4126.06Z" fill="#BA68C8"/>
<path opacity="0.1" d="M2232.53 4054.58C2246.68 4063.76 2258.46 4076.16 2266.91 4090.76C2275.36 4105.36 2280.23 4121.76 2281.14 4138.6C2281.14 4169.57 2258.94 4182.11 2232.53 4166.68C2218.41 4157.45 2206.66 4145.02 2198.24 4130.4C2189.81 4115.79 2184.94 4099.4 2184.02 4082.55C2184.02 4051.7 2205.78 4039.15 2232.53 4054.58Z" fill="black"/>
<path d="M1669.47 4409.08C1615.31 4410.03 1561.82 4397.08 1514.09 4371.46L945.819 4043.37C900.202 4016.96 875.007 3980.55 875.007 3940.82C875.007 3901.08 900.202 3864.79 945.819 3838.37L1604.21 3458.23C1676.35 3416.61 1737.4 3311.06 1737.4 3227.71V1144.09C1737.4 1138.21 1739.74 1132.56 1743.9 1128.4C1748.06 1124.23 1753.71 1121.89 1759.6 1121.89C1765.48 1121.89 1771.13 1124.23 1775.29 1128.4C1779.46 1132.56 1781.8 1138.21 1781.8 1144.09V3227.71C1781.8 3328.26 1713.65 3446.47 1626.41 3496.75L968.017 3876.89C936.718 3894.98 919.403 3917.62 919.403 3940.82C919.403 3964.01 936.718 3986.77 968.017 4004.86L1536.29 4332.95C1609.65 4375.34 1729.08 4375.34 1802.66 4332.95L2221.65 4091.21C2224.17 4089.6 2227 4088.52 2229.95 4088.04C2232.91 4087.55 2235.93 4087.67 2238.84 4088.38C2241.75 4089.09 2244.48 4090.39 2246.88 4092.18C2249.27 4093.98 2251.28 4096.24 2252.78 4098.83C2254.27 4101.43 2255.23 4104.29 2255.59 4107.27C2255.95 4110.24 2255.71 4113.25 2254.88 4116.13C2254.04 4119 2252.63 4121.68 2250.74 4124C2248.84 4126.31 2246.5 4128.22 2243.85 4129.61L1824.86 4371.46C1777.14 4397.1 1723.64 4410.05 1669.47 4409.08Z" fill="#37474F"/>
<path d="M672.34 347.295C672.011 345.791 671.999 344.234 672.305 342.724C672.611 341.215 673.227 339.785 674.116 338.527C674.952 337.211 676.057 336.086 677.357 335.226C678.657 334.365 680.125 333.788 681.663 333.533L735.604 323.1C737.126 322.755 738.703 322.735 740.233 323.041C741.763 323.347 743.211 323.972 744.483 324.875C747.062 326.65 748.852 329.356 749.478 332.423L757.802 375.709C758.115 377.221 758.109 378.782 757.784 380.292C757.459 381.802 756.822 383.227 755.915 384.477C755.102 385.801 754.02 386.94 752.739 387.819C751.458 388.699 750.007 389.3 748.479 389.583L694.427 399.905C692.922 400.233 691.365 400.245 689.856 399.939C688.346 399.634 686.917 399.017 685.659 398.129C684.343 397.292 683.218 396.188 682.357 394.887C681.496 393.587 680.92 392.12 680.664 390.581L672.34 347.295ZM627.278 113.551C626.972 112.027 626.97 110.458 627.274 108.933C627.578 107.409 628.18 105.96 629.047 104.67C629.914 103.38 631.028 102.275 632.324 101.418C633.621 100.561 635.074 99.9689 636.601 99.6768L690.653 89.2438C692.165 88.9309 693.726 88.9372 695.236 89.2621C696.746 89.587 698.171 90.2233 699.421 91.1306C700.725 91.955 701.842 93.0421 702.702 94.3225C703.562 95.6029 704.146 97.0484 704.416 98.5669L739.822 283.587C740.134 285.1 740.128 286.66 739.803 288.17C739.478 289.68 738.842 291.106 737.935 292.355C737.11 293.659 736.023 294.776 734.743 295.636C733.462 296.496 732.017 297.08 730.499 297.35L676.446 307.783C674.934 308.096 673.373 308.09 671.863 307.765C670.353 307.44 668.928 306.803 667.678 305.896C666.375 305.072 665.257 303.985 664.397 302.704C663.537 301.424 662.954 299.978 662.684 298.46L627.278 113.551Z" fill="#BA68C8"/>
<path d="M582.216 528.431C581.178 527.281 580.378 525.937 579.86 524.477C579.343 523.017 579.119 521.469 579.202 519.922C579.284 518.375 579.672 516.86 580.341 515.463C581.011 514.066 581.95 512.815 583.104 511.782L624.059 475.045C625.202 473.992 626.554 473.191 628.026 472.694C629.498 472.197 631.058 472.015 632.605 472.159C634.144 472.192 635.658 472.544 637.053 473.194C638.448 473.844 639.692 474.776 640.708 475.933L670.12 509.23C671.158 510.38 671.958 511.723 672.475 513.183C672.993 514.643 673.217 516.191 673.134 517.738C673.052 519.285 672.664 520.8 671.995 522.197C671.325 523.594 670.386 524.845 669.232 525.878L628.832 562.172C627.689 563.224 626.337 564.025 624.865 564.522C623.393 565.019 621.833 565.202 620.285 565.058C618.747 565.024 617.232 564.672 615.838 564.022C614.443 563.373 613.198 562.44 612.183 561.284L582.216 528.431ZM423.389 350.847C421.301 348.506 420.223 345.433 420.393 342.301C420.439 340.754 420.809 339.234 421.478 337.839C422.147 336.444 423.101 335.203 424.277 334.198L465.232 297.461C466.366 296.388 467.713 295.567 469.186 295.051C470.659 294.535 472.224 294.335 473.779 294.464C475.325 294.511 476.845 294.881 478.241 295.55C479.636 296.219 480.876 297.172 481.881 298.349L607.522 438.862C608.574 440.005 609.375 441.356 609.872 442.829C610.369 444.301 610.551 445.861 610.407 447.408C610.374 448.946 610.022 450.461 609.372 451.856C608.722 453.251 607.79 454.495 606.634 455.51L565.567 492.248C564.437 493.286 563.104 494.078 561.652 494.575C560.2 495.072 558.661 495.262 557.132 495.134C555.575 495.116 554.039 494.771 552.624 494.121C551.209 493.471 549.947 492.53 548.919 491.36L423.389 350.847Z" fill="#BA68C8"/>
<g opacity="0.6">
<path d="M582.216 528.431C581.178 527.281 580.378 525.937 579.86 524.477C579.343 523.017 579.119 521.469 579.202 519.922C579.284 518.375 579.672 516.86 580.341 515.463C581.011 514.066 581.95 512.815 583.104 511.782L624.059 475.045C625.202 473.992 626.554 473.191 628.026 472.694C629.498 472.197 631.058 472.015 632.605 472.159C634.144 472.192 635.658 472.544 637.053 473.194C638.448 473.844 639.692 474.776 640.708 475.933L670.12 509.23C671.158 510.38 671.958 511.723 672.475 513.183C672.993 514.643 673.217 516.191 673.134 517.738C673.052 519.285 672.664 520.8 671.995 522.197C671.325 523.594 670.386 524.845 669.232 525.878L628.832 562.172C627.689 563.224 626.337 564.025 624.865 564.522C623.393 565.019 621.833 565.202 620.285 565.058C618.747 565.024 617.232 564.672 615.838 564.022C614.443 563.373 613.198 562.44 612.183 561.284L582.216 528.431ZM423.389 350.847C421.301 348.506 420.223 345.433 420.393 342.301C420.439 340.754 420.809 339.234 421.478 337.839C422.147 336.444 423.101 335.203 424.277 334.198L465.232 297.461C466.366 296.388 467.713 295.567 469.186 295.051C470.659 294.535 472.224 294.335 473.779 294.464C475.325 294.511 476.845 294.881 478.241 295.55C479.636 296.219 480.876 297.172 481.881 298.349L607.522 438.862C608.574 440.005 609.375 441.356 609.872 442.829C610.369 444.301 610.551 445.861 610.407 447.408C610.374 448.946 610.022 450.461 609.372 451.856C608.722 453.251 607.79 454.495 606.634 455.51L565.567 492.248C564.437 493.286 563.104 494.078 561.652 494.575C560.2 495.072 558.661 495.262 557.132 495.134C555.575 495.116 554.039 494.771 552.624 494.121C551.209 493.471 549.947 492.53 548.919 491.36L423.389 350.847Z" fill="white"/>
</g>
<path d="M1638.84 10.8852C1657.85 9.69406 1676.65 15.4092 1691.78 26.9788C1698.26 32.8777 1703.32 40.1641 1706.59 48.2937C1709.86 56.4233 1711.25 65.1861 1710.65 73.9275C1711.22 82.7153 1709.82 91.5186 1706.55 99.6974C1703.29 107.876 1698.24 115.225 1691.78 121.209C1676.75 133.022 1657.93 138.942 1638.84 137.858H1594.44V200.567C1594.47 201.578 1594.29 202.583 1593.9 203.519C1593.52 204.455 1592.95 205.301 1592.22 206.006C1591.53 206.712 1590.7 207.272 1589.79 207.653C1588.87 208.035 1587.89 208.229 1586.9 208.225H1564.14C1563.13 208.24 1562.13 208.053 1561.2 207.673C1560.26 207.293 1559.41 206.73 1558.7 206.016C1557.98 205.302 1557.42 204.451 1557.04 203.515C1556.66 202.579 1556.47 201.577 1556.49 200.567V18.7655C1556.49 17.765 1556.68 16.7744 1557.07 15.8514C1557.46 14.9284 1558.02 14.0914 1558.74 13.3891C1559.45 12.6868 1560.29 12.1333 1561.22 11.7606C1562.15 11.3879 1563.14 11.2035 1564.14 11.2182L1638.84 10.8852ZM1594.44 102.674H1638.06C1647.05 103.139 1655.97 100.938 1663.7 96.3475C1667.09 93.8009 1669.75 90.4125 1671.43 86.5186C1673.1 82.6247 1673.73 78.3606 1673.25 74.1495C1673.79 69.9339 1673.19 65.6505 1671.51 61.746C1669.83 57.8416 1667.13 54.4591 1663.7 51.9515C1655.89 47.5835 1647 45.5063 1638.06 45.9581H1594.44V102.674Z" fill="#455A64"/>
<path d="M1736.07 97.9013C1737.06 93.4137 1738.83 89.1326 1741.28 85.2485C1744.19 80.3981 1747.95 76.112 1752.38 72.5956C1757.9 68.3383 1764.09 65.0367 1770.7 62.8285C1778.82 60.1562 1787.34 58.8803 1795.89 59.0548C1804.66 58.9167 1813.39 60.1909 1821.75 62.8285C1829.05 65.1535 1835.81 68.9286 1841.62 73.9275C1847.25 78.9909 1851.62 85.3 1854.38 92.3518C1857.52 100.491 1859.07 109.157 1858.93 117.879V200.567C1858.94 201.585 1858.73 202.593 1858.33 203.528C1857.93 204.464 1857.34 205.307 1856.6 206.006C1855.91 206.717 1855.08 207.281 1854.17 207.662C1853.25 208.044 1852.27 208.235 1851.28 208.225H1829.97C1828.96 208.24 1827.95 208.052 1827.02 207.673C1826.08 207.293 1825.23 206.73 1824.52 206.016C1823.8 205.301 1823.24 204.451 1822.86 203.515C1822.48 202.579 1822.29 201.577 1822.31 200.567V191.355C1817.85 197.285 1812.02 202.046 1805.33 205.229C1796.49 209.397 1786.78 211.377 1777.02 211C1769.5 211.159 1762 210.071 1754.82 207.781C1748.88 205.911 1743.4 202.81 1738.73 198.68C1734.46 194.766 1731.06 190.003 1728.74 184.695C1726.39 179.152 1725.22 173.18 1725.3 167.159C1725.02 161.362 1726.12 155.582 1728.52 150.294C1730.91 145.007 1734.52 140.364 1739.06 136.748C1750.19 128.614 1763.23 123.491 1776.91 121.875L1822.75 113.995C1823.04 110.852 1822.49 107.69 1821.16 104.826C1819.84 101.962 1817.78 99.4975 1815.2 97.6793C1809.48 94.3736 1802.95 92.7215 1796.34 92.9068C1792.53 92.7137 1788.73 93.3973 1785.24 94.9046C1782.47 96.2959 1779.93 98.0914 1777.69 100.232C1776.31 101.508 1774.74 102.557 1773.03 103.34C1771.54 103.922 1769.96 104.223 1768.37 104.228H1742.17C1740.41 104.291 1738.69 103.653 1737.4 102.452C1736.76 101.905 1736.29 101.183 1736.06 100.375C1735.82 99.5669 1735.82 98.7072 1736.07 97.9013ZM1783.13 177.37C1788.9 177.459 1794.64 176.558 1800.11 174.706C1804.71 173.118 1808.96 170.67 1812.65 167.492C1815.86 164.703 1818.43 161.259 1820.2 157.392C1821.83 153.917 1822.7 150.133 1822.75 146.293V142.963L1784.46 149.623C1778.59 150.324 1772.95 152.294 1767.92 155.394C1766.28 156.555 1764.95 158.106 1764.06 159.909C1763.17 161.711 1762.74 163.707 1762.82 165.716C1762.8 167.631 1763.37 169.504 1764.47 171.076C1765.56 172.647 1767.12 173.839 1768.92 174.484C1773.4 176.431 1778.24 177.415 1783.13 177.37Z" fill="#455A64"/>
<path d="M1960.71 236.306C1964.81 236.291 1968.88 235.694 1972.81 234.531C1976.85 233.341 1980.62 231.381 1983.91 228.759C1987.31 226.009 1990.14 222.615 1992.23 218.77C1994.44 214.364 1995.54 209.489 1995.45 204.563V194.13C1993.64 196.102 1991.68 197.921 1989.57 199.569C1986.83 201.757 1983.85 203.62 1980.69 205.118C1976.81 206.942 1972.76 208.355 1968.59 209.336C1963.46 210.497 1958.21 211.056 1952.94 211.001C1944.17 211.144 1935.47 209.284 1927.53 205.562C1920.11 202.069 1913.5 197.081 1908.1 190.912C1902.65 184.703 1898.36 177.559 1895.45 169.824C1892.33 161.849 1890.56 153.408 1890.23 144.851C1890.23 142.076 1890.23 138.746 1890.23 135.084C1890.23 131.421 1890.23 127.98 1890.23 125.206C1890.56 116.648 1892.33 108.207 1895.45 100.233C1898.39 92.5101 1902.67 85.37 1908.1 79.1447C1913.47 72.9875 1920.04 68.0005 1927.41 64.4941C1935.36 60.7723 1944.06 58.9122 1952.83 59.0555C1958.09 59.0003 1963.35 59.559 1968.48 60.7204C1972.65 61.7012 1976.7 63.1147 1980.58 64.938C1983.74 66.4365 1986.72 68.2989 1989.46 70.4875C1991.57 72.135 1993.53 73.9541 1995.34 75.926V69.4886C1995.37 67.4852 1996.17 65.57 1997.58 64.143C1998.98 62.7159 2000.88 61.8873 2002.89 61.8303H2024.31C2026.31 61.9122 2028.21 62.7454 2029.63 64.1642C2031.05 65.583 2031.88 67.4837 2031.97 69.4886V201.456C2032.61 210.885 2031.25 220.345 2027.95 229.205C2024.66 238.066 2019.52 246.124 2012.88 252.844C1998.32 265.026 1979.67 271.215 1960.71 270.158C1951.69 270.225 1942.7 268.915 1934.07 266.274C1926.5 264.086 1919.34 260.674 1912.87 256.174C1907.2 252.363 1902.3 247.503 1898.45 241.856C1895.04 236.969 1893.01 231.258 1892.56 225.319C1892.47 224.327 1892.61 223.328 1892.98 222.402C1893.35 221.477 1893.93 220.65 1894.67 219.991C1896.13 218.578 1898.08 217.783 1900.11 217.771H1919.31C1920.56 217.745 1921.8 217.967 1922.96 218.424C1924.13 218.881 1925.19 219.565 1926.08 220.435C1927.97 222.211 1929.52 223.876 1930.86 225.319C1933.5 228.717 1936.92 231.421 1940.84 233.199C1947.16 235.664 1953.94 236.725 1960.71 236.306ZM1927.41 127.203C1926.86 132.442 1926.86 137.725 1927.41 142.964C1927.49 152.855 1931.48 162.313 1938.51 169.269C1945.06 174.673 1953.34 177.513 1961.82 177.26C1970.31 177.507 1978.58 174.578 1985.02 169.047C1988.33 166.096 1991.01 162.514 1992.92 158.512C1994.82 154.51 1995.91 150.167 1996.12 145.739C1996.53 142.054 1996.71 138.347 1996.67 134.64C1996.71 130.932 1996.52 127.226 1996.12 123.541C1995.66 114.885 1991.84 106.75 1985.48 100.864C1979.12 94.978 1970.71 91.8051 1962.04 92.0196C1953.56 91.7666 1945.28 94.6069 1938.74 100.011C1935.11 103.541 1932.23 107.772 1930.29 112.446C1928.34 117.12 1927.36 122.141 1927.41 127.203Z" fill="#455A64"/>
<path d="M2063.6 135.083C2063.55 124.965 2065.2 114.91 2068.48 105.338C2071.57 96.3892 2076.44 88.1587 2082.8 81.1423C2088.95 74.211 2096.52 68.6844 2105 64.9377C2114.04 61.0943 2123.76 59.1133 2133.58 59.1133C2143.4 59.1133 2153.12 61.0943 2162.16 64.9377C2170.53 68.525 2178.08 73.7735 2184.36 80.3653C2190.44 87.022 2195.18 94.7836 2198.34 103.229C2201.59 112.003 2203.25 121.287 2203.22 130.644V143.297C2203.26 144.292 2203.08 145.285 2202.7 146.204C2202.32 147.124 2201.74 147.95 2201 148.624C2200.33 149.367 2199.51 149.958 2198.59 150.36C2197.67 150.761 2196.68 150.964 2195.68 150.955H2101.67C2101.63 154.818 2102.54 158.631 2104.33 162.054C2106.08 165.333 2108.55 168.178 2111.55 170.378C2114.68 172.712 2118.22 174.443 2121.98 175.484C2125.91 176.603 2129.99 177.164 2134.08 177.149C2138.99 177.281 2143.9 176.645 2148.62 175.262C2151.94 174.241 2155.09 172.706 2157.94 170.711C2159.52 169.482 2161.23 168.439 2163.05 167.603C2164.75 166.964 2166.56 166.663 2168.37 166.716H2190.57C2192.6 166.727 2194.55 167.522 2196.01 168.935C2196.79 169.594 2197.39 170.436 2197.76 171.386C2198.12 172.336 2198.25 173.363 2198.12 174.374C2197.47 178.027 2195.99 181.482 2193.79 184.474C2190.44 189.175 2186.31 193.267 2181.58 196.572C2175.36 200.879 2168.56 204.28 2161.38 206.672C2152.47 209.62 2143.13 211.045 2133.74 210.89C2123.93 211.047 2114.18 209.196 2105.11 205.451C2096.62 201.988 2089.03 196.636 2082.91 189.801C2076.56 183.015 2071.65 175.01 2068.48 166.272C2065.09 156.23 2063.44 145.682 2063.6 135.083ZM2132.63 92.7962C2127.86 92.6577 2123.1 93.4883 2118.65 95.238C2115.04 96.631 2111.76 98.746 2108.99 101.453C2106.42 103.832 2104.34 106.7 2102.89 109.889C2101.53 112.685 2100.63 115.684 2100.23 118.768H2163.82C2163.41 115.746 2162.71 112.772 2161.71 109.889C2160.67 106.73 2158.92 103.847 2156.61 101.453C2154.03 98.7275 2150.89 96.6049 2147.4 95.238C2142.69 93.444 2137.67 92.6137 2132.63 92.7962Z" fill="#455A64"/>
<path d="M2433.97 200.567C2433.99 201.567 2433.8 202.561 2433.43 203.489C2433.06 204.418 2432.5 205.263 2431.8 205.975C2431.1 206.688 2430.26 207.254 2429.34 207.64C2428.42 208.026 2427.43 208.225 2426.43 208.225H2404.67C2403.68 208.235 2402.7 208.043 2401.78 207.662C2400.86 207.28 2400.04 206.717 2399.34 206.005C2398.6 205.307 2398.01 204.463 2397.61 203.528C2397.21 202.592 2397.01 201.584 2397.01 200.567V129.089C2397.53 119.465 2394.75 109.952 2389.13 102.119C2386.2 98.63 2382.47 95.8935 2378.26 94.1367C2374.05 92.3799 2369.48 91.6537 2364.94 92.0186C2360.52 91.8036 2356.12 92.602 2352.06 94.3527C2348 96.1033 2344.39 98.7598 2341.52 102.119C2335.45 109.76 2332.38 119.346 2332.86 129.089V200.567C2332.89 201.577 2332.7 202.582 2332.32 203.518C2331.94 204.454 2331.37 205.301 2330.64 206.005C2329.95 206.712 2329.12 207.272 2328.2 207.653C2327.29 208.034 2326.3 208.229 2325.31 208.225H2304.78C2303.79 208.229 2302.81 208.034 2301.89 207.653C2300.98 207.272 2300.15 206.712 2299.45 206.005C2298.73 205.301 2298.16 204.454 2297.77 203.518C2297.39 202.582 2297.21 201.577 2297.23 200.567V69.4876C2297.2 68.4918 2297.37 67.4997 2297.76 66.5799C2298.14 65.66 2298.72 64.8344 2299.45 64.1601C2300.13 63.4177 2300.95 62.8262 2301.87 62.4245C2302.79 62.0228 2303.78 61.82 2304.78 61.8293H2326.2C2327.2 61.82 2328.2 62.0228 2329.11 62.4245C2330.03 62.8262 2330.86 63.4177 2331.53 64.1601C2332.26 64.8344 2332.84 65.66 2333.22 66.5799C2333.61 67.4997 2333.79 68.4918 2333.75 69.4876V75.925C2338.78 70.9719 2344.59 66.8841 2350.95 63.8271C2358.25 60.466 2366.23 58.8328 2374.26 59.0545C2384.11 58.7299 2393.92 60.5475 2403.01 64.3821C2410.25 67.5957 2416.6 72.507 2421.54 78.6998C2426.35 84.8854 2429.76 92.0431 2431.53 99.6769C2433.56 107.921 2434.56 116.382 2434.53 124.872L2433.97 200.567Z" fill="#455A64"/>
<path d="M2535.86 59.0551C2545.4 58.9002 2554.88 60.5186 2563.83 63.8276C2571.84 66.9827 2579.18 71.6136 2585.47 77.4794C2591.55 83.0875 2596.52 89.7895 2600.12 97.2356C2603.82 104.802 2605.97 113.026 2606.45 121.431C2606.59 123.575 2606.59 125.725 2606.45 127.869V143.518C2606.59 145.625 2606.59 147.738 2606.45 149.845C2605.75 158.228 2603.58 166.42 2600.01 174.041C2596.52 181.455 2591.57 188.096 2585.47 193.575C2579.14 199.249 2571.8 203.69 2563.83 206.672C2545.86 212.931 2526.3 212.931 2508.34 206.672C2500.17 203.768 2492.63 199.322 2486.14 193.575C2480.07 188.091 2475.17 181.45 2471.71 174.041C2468.11 166.427 2465.89 158.234 2465.16 149.845C2465.16 148.143 2465.16 146.034 2465.16 143.518C2465.16 140.966 2465.16 138.413 2465.16 135.749C2465.16 133.085 2465.16 130.533 2465.16 127.869C2465.16 125.205 2465.16 123.096 2465.16 121.431C2465.75 113.044 2467.9 104.839 2471.49 97.2356C2475.09 89.7895 2480.06 83.0875 2486.14 77.4794C2492.63 71.6997 2500.16 67.2164 2508.34 64.2716C2517.11 60.8648 2526.44 59.0967 2535.86 59.0551ZM2569.94 122.319C2569.55 117.282 2568.15 112.375 2565.83 107.891C2563.86 104.31 2561.13 101.203 2557.84 98.7895C2554.74 96.5022 2551.18 94.9121 2547.4 94.1279C2543.77 93.2746 2540.04 92.8279 2536.31 92.796C2532.57 92.8214 2528.84 93.2682 2525.21 94.1279C2521.43 94.9121 2517.87 96.5022 2514.77 98.7895C2511.42 101.141 2508.68 104.262 2506.78 107.891C2504.4 112.354 2503 117.273 2502.68 122.319C2502.68 123.873 2502.68 125.76 2502.68 127.98C2502.68 130.2 2502.68 132.641 2502.68 135.083C2502.68 137.525 2502.68 139.856 2502.68 142.187C2502.58 144.035 2502.58 145.887 2502.68 147.736C2502.99 152.785 2504.39 157.706 2506.78 162.165C2508.71 165.803 2511.44 168.954 2514.77 171.377C2517.93 173.576 2521.47 175.158 2525.21 176.039C2528.86 176.81 2532.57 177.219 2536.31 177.259C2540.04 177.214 2543.75 176.805 2547.4 176.039C2551.15 175.158 2554.69 173.576 2557.84 171.377C2561.11 168.893 2563.83 165.756 2565.83 162.165C2568.17 157.686 2569.57 152.776 2569.94 147.736C2569.94 146.404 2569.94 144.517 2569.94 142.187V127.98C2570.16 125.76 2570.05 123.873 2569.94 121.875V122.319Z" fill="#455A64"/>
<path d="M2686.36 155.173C2686.11 160.254 2687.77 165.245 2691.03 169.158C2693.4 171.159 2696.17 172.654 2699.14 173.551C2702.12 174.448 2705.25 174.728 2708.34 174.374H2725.54C2726.54 174.358 2727.52 174.546 2728.44 174.928C2729.36 175.31 2730.18 175.877 2730.87 176.594C2731.58 177.286 2732.15 178.114 2732.53 179.03C2732.91 179.946 2733.1 180.93 2733.09 181.922V200.457C2733.11 201.457 2732.92 202.451 2732.55 203.379C2732.18 204.308 2731.62 205.153 2730.92 205.866C2730.22 206.578 2729.38 207.144 2728.46 207.53C2727.53 207.917 2726.54 208.115 2725.54 208.115H2704.34C2689.67 209.084 2675.16 204.487 2663.72 195.241C2658.65 190.131 2654.76 183.98 2652.3 177.215C2649.85 170.449 2648.9 163.231 2649.51 156.061V95.6825H2630.87C2628.87 95.6254 2626.96 94.7969 2625.56 93.3698C2624.15 91.9428 2623.35 90.0276 2623.32 88.0242V69.4888C2623.35 67.4855 2624.15 65.5703 2625.56 64.1432C2626.96 62.7162 2628.87 61.8876 2630.87 61.8306H2649.51V15.9917C2649.51 13.99 2650.31 12.0703 2651.73 10.6549C2653.14 9.23955 2655.06 8.44437 2657.06 8.44437H2678.48C2679.48 8.42776 2680.46 8.61637 2681.38 8.99834C2682.3 9.3803 2683.12 9.94741 2683.81 10.6642C2684.52 11.3556 2685.09 12.1843 2685.47 13.1001C2685.85 14.0159 2686.04 14.9996 2686.03 15.9917V61.8306H2722.32C2724.33 61.9125 2726.23 62.7456 2727.65 64.1645C2729.07 65.5833 2729.9 67.484 2729.98 69.4888V88.5791C2729.9 90.584 2729.07 92.4847 2727.65 93.9035C2726.23 95.3224 2724.33 96.1555 2722.32 96.2374H2686.03L2686.36 155.173Z" fill="#455A64"/>
<path d="M2870.83 61.8298H2909.9C2910.92 61.8255 2911.92 62.0301 2912.86 62.431C2913.79 62.8319 2914.64 63.4206 2915.34 64.1606C2916.05 64.852 2916.61 65.6808 2916.99 66.5966C2917.37 67.5124 2917.57 68.4961 2917.56 69.4881V88.5784C2917.57 89.5705 2917.37 90.5542 2916.99 91.47C2916.61 92.3858 2916.05 93.2145 2915.34 93.9059C2914.64 94.6459 2913.79 95.2346 2912.86 95.6355C2911.92 96.0365 2910.92 96.2411 2909.9 96.2367H2870.83V201.122C2870.84 202.123 2870.66 203.116 2870.29 204.045C2869.91 204.973 2869.36 205.818 2868.66 206.531C2867.96 207.244 2867.12 207.809 2866.2 208.196C2865.27 208.582 2864.28 208.781 2863.28 208.781H2841.86C2840.87 208.791 2839.88 208.599 2838.97 208.217C2838.05 207.836 2837.22 207.272 2836.53 206.561C2835.79 205.862 2835.2 205.019 2834.8 204.083C2834.4 203.148 2834.2 202.14 2834.2 201.122V95.6818H2815.33C2814.33 95.6983 2813.34 95.4986 2812.42 95.0965C2811.5 94.6943 2810.68 94.099 2810.01 93.351C2809.27 92.6767 2808.69 91.851 2808.31 90.9312C2807.93 90.0113 2807.75 89.0193 2807.79 88.0235V69.4881C2807.75 68.4924 2807.93 67.5003 2808.31 66.5804C2808.69 65.6606 2809.27 64.8349 2810.01 64.1606C2810.68 63.4126 2811.5 62.8173 2812.42 62.4151C2813.34 62.013 2814.33 61.8134 2815.33 61.8298H2833.87V49.177C2833.65 41.3646 2835.01 33.5885 2837.86 26.313C2840.19 20.3102 2844.01 15.0003 2848.96 10.8854C2854.18 6.85732 2860.2 3.98232 2866.61 2.45022C2874.11 0.726441 2881.78 -0.0933368 2889.48 0.00843189H2912.34C2913.33 -0.0081779 2914.32 0.18039 2915.23 0.562357C2916.15 0.944324 2916.98 1.51147 2917.67 2.22824C2918.38 2.91965 2918.94 3.74836 2919.32 4.66415C2919.7 5.57993 2919.9 6.5637 2919.89 7.55575V26.0911C2919.9 27.0915 2919.72 28.0849 2919.34 29.0134C2918.97 29.9419 2918.42 30.7871 2917.72 31.4997C2917.01 32.2124 2916.18 32.7782 2915.25 33.1644C2914.33 33.5506 2913.34 33.7495 2912.34 33.7494H2893.03C2887.33 33.3534 2881.65 34.6675 2876.71 37.523C2874.63 39.2809 2873.02 41.5326 2872.03 44.0724C2871.04 46.6122 2870.7 49.3593 2871.05 52.0627L2870.83 61.8298Z" fill="#455A64"/>
<path d="M3004.02 59.0551C3013.56 58.9002 3023.04 60.5186 3031.99 63.8276C3039.83 67.0314 3047.02 71.66 3053.19 77.4794C3059.27 83.0875 3064.24 89.7895 3067.84 97.2356C3071.53 104.802 3073.68 113.026 3074.16 121.431C3074.3 123.575 3074.3 125.725 3074.16 127.869V143.518C3074.3 145.625 3074.3 147.738 3074.16 149.845C3073.47 158.228 3071.29 166.42 3067.73 174.041C3064.23 181.455 3059.28 188.096 3053.19 193.575C3046.85 199.249 3039.51 203.69 3031.54 206.672C3022.69 209.663 3013.36 211.017 3004.02 210.667C2994.44 210.821 2984.92 209.202 2975.94 205.895C2967.97 202.913 2960.63 198.472 2954.29 192.798C2948.23 187.315 2943.32 180.673 2939.86 173.264C2936.22 165.668 2934 157.467 2933.32 149.068C2933.32 147.403 2933.32 145.294 2933.32 142.742C2933.32 140.189 2933.32 137.636 2933.32 134.972C2933.32 132.308 2933.32 129.756 2933.32 127.092C2933.32 124.428 2933.32 122.319 2933.32 120.654C2933.8 112.25 2935.95 104.025 2939.64 96.4587C2943.19 89.3258 2948.01 82.8954 2953.85 77.4794C2960.18 71.7722 2967.52 67.2933 2975.49 64.2716C2984.59 60.7581 2994.27 58.9884 3004.02 59.0551ZM3037.31 121.875C3036.97 116.846 3035.61 111.939 3033.32 107.447C3031.35 103.835 3028.58 100.721 3025.22 98.3455C3022.15 96.0606 3018.63 94.4698 3014.89 93.6839C3011.26 92.8306 3007.53 92.3839 3003.8 92.3521C3000.06 92.3717 2996.33 92.8185 2992.7 93.6839C2988.92 94.4681 2985.36 96.0583 2982.26 98.3455C2978.91 100.698 2976.17 103.818 2974.27 107.447C2971.89 111.91 2970.49 116.829 2970.17 121.875C2970.17 123.429 2970.17 125.316 2970.17 127.536C2970.17 129.756 2970.17 132.197 2970.17 134.639C2970.17 137.081 2970.17 139.412 2970.17 141.743C2970.07 143.591 2970.07 145.444 2970.17 147.292C2970.48 152.341 2971.88 157.262 2974.27 161.721C2976.2 165.359 2978.93 168.51 2982.26 170.933C2985.41 173.132 2988.96 174.714 2992.7 175.595C2996.35 176.374 3000.06 176.783 3003.8 176.815C3007.53 176.77 3011.24 176.361 3014.89 175.595C3018.6 174.711 3022.1 173.129 3025.22 170.933C3028.55 168.486 3031.32 165.343 3033.32 161.721C3035.62 157.234 3036.98 152.324 3037.31 147.292C3037.46 145.445 3037.46 143.59 3037.31 141.743V127.98C3037.47 125.948 3037.47 123.907 3037.31 121.875Z" fill="#455A64"/>
<path d="M3105.13 69.4884C3105.16 67.485 3105.96 65.5699 3107.36 64.1428C3108.77 62.7158 3110.67 61.8872 3112.68 61.8301H3134.1C3136.1 61.9121 3138 62.7452 3139.42 64.1641C3140.84 65.5829 3141.67 67.4836 3141.76 69.4884V140.966C3141.27 150.475 3143.75 159.899 3148.86 167.937C3151.62 171.466 3155.22 174.249 3159.33 176.032C3163.44 177.816 3167.93 178.543 3172.39 178.148C3176.72 178.393 3181.05 177.594 3185.01 175.817C3188.97 174.04 3192.45 171.337 3195.14 167.937C3200.76 160.103 3203.54 150.591 3203.02 140.966V69.4884C3203.1 67.4836 3203.94 65.5829 3205.36 64.1641C3206.78 62.7452 3208.68 61.9121 3210.68 61.8301H3231.99C3233.01 61.8258 3234.02 62.0304 3234.95 62.4313C3235.89 62.8322 3236.73 63.4209 3237.43 64.1609C3238.14 64.8523 3238.7 65.6811 3239.09 66.5969C3239.47 67.5127 3239.66 68.4964 3239.65 69.4884V200.568C3239.66 201.577 3239.48 202.58 3239.1 203.516C3238.72 204.452 3238.15 205.302 3237.44 206.016C3236.73 206.73 3235.87 207.294 3234.94 207.673C3234 208.053 3233 208.241 3231.99 208.226H3210.68C3209.69 208.236 3208.7 208.044 3207.79 207.663C3206.87 207.281 3206.04 206.718 3205.35 206.006C3204.61 205.307 3204.02 204.464 3203.62 203.529C3203.22 202.593 3203.02 201.585 3203.02 200.568V194.13C3198.25 198.566 3192.86 202.303 3187.04 205.229C3179.92 208.911 3171.97 210.707 3163.95 210.446C3154.21 210.772 3144.51 208.953 3135.54 205.118C3128.44 201.925 3122.26 197.002 3117.56 190.8C3112.91 184.563 3109.62 177.415 3107.9 169.823C3106.01 161.561 3105.08 153.106 3105.13 144.629V69.4884Z" fill="#455A64"/>
<path d="M3415.79 200.567C3415.8 201.567 3415.62 202.561 3415.25 203.489C3414.87 204.418 3414.32 205.263 3413.62 205.975C3412.92 206.688 3412.08 207.254 3411.16 207.64C3410.23 208.026 3409.24 208.225 3408.24 208.225H3386.82C3385.83 208.235 3384.85 208.043 3383.93 207.662C3383.01 207.28 3382.19 206.717 3381.49 206.005C3380.75 205.307 3380.16 204.463 3379.76 203.528C3379.36 202.592 3379.16 201.584 3379.16 200.567V129.089C3379.68 119.465 3376.9 109.952 3371.28 102.119C3368.35 98.63 3364.62 95.8935 3360.41 94.1367C3356.2 92.3799 3351.63 91.6537 3347.09 92.0186C3342.67 91.8036 3338.27 92.602 3334.21 94.3527C3330.15 96.1033 3326.54 98.7598 3323.67 102.119C3317.6 109.76 3314.53 119.346 3315.01 129.089V200.567C3315.04 201.577 3314.85 202.582 3314.47 203.518C3314.09 204.454 3313.52 205.301 3312.79 206.005C3312.1 206.712 3311.27 207.272 3310.35 207.653C3309.44 208.034 3308.45 208.229 3307.46 208.225H3286.04C3285.05 208.229 3284.07 208.034 3283.15 207.653C3282.24 207.272 3281.41 206.712 3280.71 206.005C3279.99 205.301 3279.42 204.454 3279.04 203.518C3278.65 202.582 3278.47 201.577 3278.5 200.567V69.4876C3278.46 68.4918 3278.64 67.4997 3279.02 66.5799C3279.4 65.66 3279.98 64.8344 3280.71 64.1601C3281.39 63.4177 3282.21 62.8262 3283.13 62.4245C3284.05 62.0228 3285.04 61.82 3286.04 61.8293H3307.46C3308.47 61.82 3309.46 62.0228 3310.38 62.4245C3311.29 62.8262 3312.12 63.4177 3312.79 64.1601C3313.52 64.8344 3314.1 65.66 3314.49 66.5799C3314.87 67.4997 3315.05 68.4918 3315.01 69.4876V75.925C3320.04 70.9719 3325.85 66.8841 3332.21 63.8271C3339.51 60.466 3347.49 58.8328 3355.52 59.0545C3365.38 58.7299 3375.18 60.5475 3384.27 64.3821C3391.51 67.5957 3397.87 72.507 3402.8 78.6998C3407.61 84.8854 3411.02 92.0431 3412.79 99.6769C3414.82 107.921 3415.83 116.382 3415.79 124.872V200.567Z" fill="#455A64"/>
<path d="M3509.47 59.0549C3514.73 58.9893 3519.98 59.5482 3525.12 60.7197C3529.28 61.7005 3533.34 63.114 3537.21 64.9373C3540.38 66.4358 3543.36 68.2982 3546.09 70.4868C3548.22 72.1052 3550.19 73.9266 3551.97 75.9253V15.9907C3551.97 14.9902 3552.17 13.9997 3552.56 13.0767C3552.95 12.1537 3553.51 11.3167 3554.22 10.6144C3554.94 9.91207 3555.78 9.35849 3556.71 8.9858C3557.64 8.6131 3558.63 8.42872 3559.63 8.44343H3581.17C3582.16 8.40563 3583.15 8.58458 3584.07 8.96784C3584.99 9.35111 3585.82 9.92956 3586.49 10.6632C3587.24 11.332 3587.84 12.154 3588.24 13.0732C3588.64 13.9925 3588.84 14.9875 3588.82 15.9907V200.567C3588.83 201.585 3588.62 202.593 3588.22 203.528C3587.82 204.464 3587.23 205.307 3586.49 206.006C3585.8 206.717 3584.97 207.281 3584.06 207.662C3583.14 208.044 3582.16 208.235 3581.17 208.225H3559.86C3558.85 208.24 3557.84 208.052 3556.91 207.673C3555.97 207.293 3555.12 206.73 3554.41 206.016C3553.69 205.302 3553.13 204.451 3552.75 203.515C3552.37 202.579 3552.18 201.577 3552.2 200.567V194.13C3550.42 196.128 3548.45 197.95 3546.31 199.568C3543.58 201.757 3540.6 203.619 3537.44 205.118C3533.56 206.941 3529.51 208.354 3525.34 209.335C3520.21 210.507 3514.95 211.066 3509.69 211C3500.91 211.143 3492.22 209.283 3484.27 205.562C3476.86 202.068 3470.24 197.08 3464.85 190.911C3459.43 184.675 3455.15 177.537 3452.2 169.823C3449.07 161.849 3447.31 153.407 3446.98 144.85C3446.98 142.075 3446.98 138.746 3446.98 135.083C3446.98 131.42 3446.98 127.98 3446.98 125.205C3447.31 116.648 3449.07 108.206 3452.2 100.232C3455.17 92.5294 3459.45 85.3962 3464.85 79.1441C3470.24 72.9746 3476.86 67.9868 3484.27 64.4934C3492.15 60.8045 3500.77 58.9452 3509.47 59.0549ZM3483.27 127.203C3482.72 132.442 3482.72 137.724 3483.27 142.963C3483.4 152.844 3487.38 162.285 3494.37 169.268C3500.92 174.654 3509.2 177.492 3517.68 177.259C3526.2 177.492 3534.5 174.566 3540.99 169.046C3544.3 166.095 3546.98 162.514 3548.89 158.511C3550.79 154.509 3551.88 150.166 3552.09 145.738C3552.49 142.053 3552.68 138.347 3552.64 134.639C3552.67 130.932 3552.49 127.226 3552.09 123.54C3551.63 114.885 3547.81 106.749 3541.45 100.863C3535.08 94.9774 3526.68 91.8045 3518.01 92.0189C3509.53 91.7862 3501.26 94.6241 3494.7 100.01C3491.08 103.547 3488.19 107.776 3486.23 112.447C3484.27 117.118 3483.26 122.136 3483.27 127.203Z" fill="#455A64"/>
<path d="M1976.69 485.478C1977.61 485.469 1978.52 485.651 1979.36 486.015C1980.2 486.378 1980.96 486.914 1981.58 487.587C1982.23 488.222 1982.74 488.983 1983.08 489.823C1983.42 490.662 1983.59 491.564 1983.58 492.471V519.774C1983.59 520.681 1983.42 521.583 1983.08 522.422C1982.74 523.262 1982.23 524.023 1981.58 524.658C1980.96 525.331 1980.2 525.867 1979.36 526.23C1978.52 526.594 1977.61 526.776 1976.69 526.767H1854.6C1853.69 526.783 1852.78 526.604 1851.94 526.24C1851.09 525.877 1850.34 525.337 1849.72 524.658C1849.06 524.028 1848.53 523.271 1848.17 522.432C1847.8 521.593 1847.62 520.688 1847.61 519.774V353.289C1847.62 352.375 1847.8 351.471 1848.17 350.632C1848.53 349.792 1849.06 349.035 1849.72 348.406C1850.34 347.727 1851.09 347.187 1851.94 346.823C1852.78 346.46 1853.69 346.28 1854.6 346.297H1974.81C1976.64 346.353 1978.39 347.107 1979.69 348.407C1980.99 349.706 1981.74 351.452 1981.8 353.289V380.482C1981.81 381.415 1981.63 382.34 1981.27 383.199C1980.9 384.059 1980.37 384.834 1979.69 385.476C1979.06 386.125 1978.29 386.636 1977.46 386.98C1976.62 387.323 1975.71 387.491 1974.81 387.474H1895.34V415.333H1969.15C1970.06 415.316 1970.97 415.495 1971.82 415.859C1972.66 416.223 1973.41 416.762 1974.03 417.442C1974.69 418.071 1975.22 418.828 1975.58 419.668C1975.95 420.507 1976.14 421.411 1976.14 422.325V449.629C1976.14 450.543 1975.95 451.447 1975.58 452.286C1975.22 453.125 1974.69 453.883 1974.03 454.512C1973.41 455.191 1972.66 455.731 1971.82 456.095C1970.97 456.458 1970.06 456.638 1969.15 456.621H1895.34V485.478H1976.69Z" fill="#BA68C8"/>
<path d="M2090.13 346.186C2100.38 346.049 2110.61 347.281 2120.54 349.849C2128.8 352.046 2136.56 355.815 2143.4 360.948C2149.68 365.828 2154.64 372.199 2157.83 379.483C2161.31 387.729 2163.01 396.617 2162.82 405.566C2163.26 416.835 2160.49 427.996 2154.83 437.753C2149.5 446.266 2141.78 453.021 2132.63 457.176L2164.6 518.553C2165.09 519.438 2165.36 520.428 2165.38 521.439C2165.38 522.94 2164.78 524.38 2163.72 525.442C2162.66 526.503 2161.22 527.1 2159.72 527.1H2124.64C2123.33 527.233 2122 527.096 2120.74 526.695C2119.48 526.294 2118.31 525.638 2117.32 524.769C2115.93 523.379 2114.74 521.811 2113.77 520.107L2085.13 464.612H2060.6V520.107C2060.62 521.014 2060.45 521.916 2060.11 522.755C2059.76 523.595 2059.25 524.356 2058.6 524.991C2057.98 525.664 2057.23 526.2 2056.39 526.564C2055.55 526.927 2054.64 527.109 2053.72 527.1H2020.42C2019.51 527.109 2018.6 526.927 2017.76 526.564C2016.92 526.2 2016.16 525.664 2015.54 524.991C2014.89 524.356 2014.38 523.595 2014.04 522.755C2013.69 521.916 2013.53 521.014 2013.54 520.107V353.622C2013.53 352.715 2013.69 351.814 2014.04 350.974C2014.38 350.135 2014.89 349.374 2015.54 348.739C2016.16 348.065 2016.92 347.529 2017.76 347.166C2018.6 346.803 2019.51 346.62 2020.42 346.63L2090.13 346.186ZM2060.94 423.879H2090.13C2096.38 424.128 2102.58 422.711 2108.11 419.772C2110.54 418.159 2112.47 415.906 2113.71 413.263C2114.94 410.62 2115.42 407.688 2115.1 404.789C2115.43 401.905 2114.95 398.987 2113.71 396.361C2112.48 393.734 2110.54 391.503 2108.11 389.916C2102.58 386.978 2096.38 385.561 2090.13 385.809H2060.6L2060.94 423.879Z" fill="#BA68C8"/>
<path d="M2269.37 346.186C2279.63 346.049 2289.86 347.281 2299.79 349.849C2308.05 352.046 2315.81 355.815 2322.65 360.948C2328.96 365.797 2333.93 372.177 2337.08 379.483C2340.56 387.729 2342.26 396.617 2342.07 405.566C2342.51 416.835 2339.74 427.996 2334.08 437.753C2328.75 446.266 2321.03 453.021 2311.88 457.176L2343.85 518.553C2344.34 519.438 2344.61 520.428 2344.63 521.439C2344.63 522.94 2344.03 524.38 2342.97 525.442C2341.91 526.503 2340.47 527.1 2338.97 527.1H2303.89C2302.58 527.233 2301.25 527.096 2299.99 526.695C2298.73 526.294 2297.56 525.638 2296.57 524.769C2295.18 523.379 2293.99 521.811 2293.02 520.107L2264.38 464.612H2240.74V520.107C2240.74 521.022 2240.55 521.926 2240.18 522.765C2239.82 523.604 2239.29 524.361 2238.63 524.991C2238.01 525.664 2237.25 526.2 2236.41 526.564C2235.57 526.927 2234.66 527.109 2233.75 527.1H2199.89C2198.98 527.109 2198.07 526.927 2197.23 526.564C2196.39 526.2 2195.63 525.664 2195.01 524.991C2194.36 524.356 2193.85 523.595 2193.51 522.755C2193.16 521.916 2193 521.014 2193.01 520.107V353.622C2193 352.715 2193.16 351.814 2193.51 350.974C2193.85 350.135 2194.36 349.374 2195.01 348.739C2195.63 348.065 2196.39 347.529 2197.23 347.166C2198.07 346.803 2198.98 346.62 2199.89 346.63L2269.37 346.186ZM2240.3 423.879H2269.37C2275.63 424.128 2281.83 422.711 2287.35 419.772C2289.78 418.159 2291.72 415.906 2292.96 413.263C2294.19 410.62 2294.67 407.688 2294.35 404.789C2294.68 401.905 2294.2 398.987 2292.96 396.361C2291.73 393.734 2289.78 391.503 2287.35 389.916C2281.83 386.978 2275.63 385.561 2269.37 385.809H2240.3V423.879Z" fill="#BA68C8"/>
<path d="M2365.82 413.557C2366.31 404.19 2368.45 394.983 2372.15 386.364C2375.76 377.926 2381.14 370.357 2387.91 364.166C2395.09 357.581 2403.5 352.487 2412.66 349.183C2434.43 341.783 2458.04 341.783 2479.81 349.183C2488.96 352.514 2497.37 357.604 2504.56 364.166C2511.31 370.362 2516.64 377.931 2520.21 386.364C2524.02 394.949 2526.16 404.175 2526.54 413.557C2526.54 420.882 2527.09 428.652 2527.09 436.754C2527.09 444.856 2527.09 452.403 2526.54 458.952C2526.15 468.368 2524 477.628 2520.21 486.255C2516.55 494.636 2511.22 502.187 2504.56 508.453C2497.33 515.044 2488.83 520.103 2479.59 523.326C2457.79 530.579 2434.24 530.579 2412.44 523.326C2403.27 520.101 2394.84 515.041 2387.69 508.453C2380.99 502.191 2375.63 494.641 2371.93 486.255C2368.24 477.594 2366.1 468.353 2365.6 458.952C2365.6 451.959 2365.6 444.412 2365.6 436.754C2365.6 429.095 2365.49 420.882 2365.82 413.557ZM2479.03 457.953C2479.03 454.845 2479.03 451.404 2479.59 447.631C2480.14 443.857 2479.59 439.972 2479.59 435.977C2479.59 431.981 2479.59 428.208 2479.59 424.878C2479.59 421.548 2479.59 417.885 2479.03 414.889C2478.75 410.854 2477.85 406.886 2476.37 403.124C2474.98 399.582 2472.86 396.369 2470.15 393.69C2467.33 390.932 2463.97 388.779 2460.28 387.363C2455.8 385.728 2451.06 384.937 2446.29 385.032C2441.56 384.925 2436.85 385.716 2432.42 387.363C2428.68 388.751 2425.28 390.906 2422.43 393.69C2419.76 396.398 2417.65 399.603 2416.21 403.124C2414.73 406.886 2413.83 410.854 2413.55 414.889C2413.55 417.848 2413.33 421.178 2412.88 424.878C2412.88 428.541 2412.88 432.425 2412.88 435.977C2412.88 439.529 2412.88 443.857 2412.88 447.631C2412.88 451.404 2412.88 454.845 2413.55 457.953C2413.97 465.899 2417.1 473.461 2422.43 479.374C2425.59 482.381 2429.35 484.687 2433.46 486.141C2437.57 487.594 2441.94 488.163 2446.29 487.809C2450.62 488.176 2454.98 487.612 2459.08 486.158C2463.18 484.703 2466.91 482.39 2470.04 479.374C2475.27 473.475 2478.43 466.032 2479.03 458.175V457.953Z" fill="#BA68C8"/>
<path d="M2633.87 346.186C2644.12 346.057 2654.35 347.289 2664.28 349.849C2672.51 352.036 2680.24 355.806 2687.03 360.948C2693.34 365.821 2698.34 372.191 2701.57 379.483C2705.05 387.729 2706.75 396.617 2706.56 405.566C2707 416.835 2704.23 427.996 2698.57 437.753C2693.11 446.363 2685.18 453.13 2675.82 457.176L2707.78 518.553C2708.3 519.433 2708.61 520.421 2708.67 521.439C2708.66 522.191 2708.5 522.932 2708.19 523.619C2707.89 524.306 2707.45 524.924 2706.9 525.435C2706.38 525.971 2705.76 526.395 2705.07 526.682C2704.38 526.968 2703.65 527.11 2702.9 527.1H2667.83C2666.51 527.233 2665.18 527.096 2663.92 526.695C2662.66 526.294 2661.5 525.638 2660.5 524.769C2659.15 523.382 2657.99 521.813 2657.06 520.107L2628.43 464.612H2604.45V520.107C2604.4 521.944 2603.64 523.69 2602.34 524.99C2601.04 526.289 2599.3 527.044 2597.46 527.1H2564.16C2562.33 527.044 2560.58 526.289 2559.28 524.99C2557.98 523.69 2557.23 521.944 2557.17 520.107V353.622C2557.23 351.785 2557.98 350.039 2559.28 348.74C2560.58 347.44 2562.33 346.686 2564.16 346.63L2633.87 346.186ZM2604.68 423.879H2633.87C2640.08 424.13 2646.25 422.712 2651.73 419.772C2654.2 418.191 2656.18 415.948 2657.43 413.299C2658.69 410.649 2659.18 407.701 2658.84 404.789C2659.17 401.893 2658.68 398.963 2657.42 396.333C2656.16 393.703 2654.19 391.479 2651.73 389.916C2646.25 386.977 2640.08 385.559 2633.87 385.809H2604.45L2604.68 423.879Z" fill="#BA68C8"/>
<path d="M2876.05 526.766C2875.11 526.778 2874.19 526.597 2873.33 526.234C2872.47 525.871 2871.69 525.334 2871.05 524.658C2870.4 524.023 2869.89 523.262 2869.55 522.422C2869.2 521.582 2869.04 520.681 2869.05 519.774V493.469H2787.81C2786.9 493.487 2786 493.318 2785.16 492.975C2784.32 492.631 2783.56 492.12 2782.92 491.472C2782.25 490.829 2781.71 490.054 2781.35 489.195C2780.99 488.335 2780.8 487.41 2780.82 486.477V459.173C2780.68 455.209 2781.85 451.309 2784.15 448.074L2861.28 350.847C2862.44 349.338 2863.87 348.059 2865.5 347.074C2867.2 346.434 2869.01 346.133 2870.83 346.186H2909.79C2910.7 346.169 2911.61 346.348 2912.46 346.712C2913.3 347.076 2914.05 347.615 2914.67 348.294C2915.33 348.924 2915.86 349.681 2916.22 350.52C2916.59 351.36 2916.78 352.264 2916.78 353.178V452.181H2938.98C2940.82 452.213 2942.57 452.971 2943.86 454.29C2944.51 454.925 2945.02 455.686 2945.36 456.525C2945.71 457.365 2945.88 458.266 2945.86 459.173V486.477C2945.87 488.339 2945.16 490.133 2943.86 491.472C2943.22 492.109 2942.46 492.614 2941.62 492.957C2940.78 493.3 2939.88 493.474 2938.98 493.469H2916.78V519.774C2916.78 520.688 2916.59 521.592 2916.22 522.431C2915.86 523.271 2915.33 524.028 2914.67 524.658C2914.05 525.337 2913.3 525.876 2912.46 526.24C2911.61 526.604 2910.7 526.783 2909.79 526.766H2876.05ZM2870.83 452.181V404.788L2833.2 452.181H2870.83Z" fill="#BA68C8"/>
<path d="M3042.86 343.855C3054.22 343.595 3065.53 345.516 3076.16 349.516C3084.83 352.914 3092.7 358.094 3099.25 364.722C3105.31 371.077 3109.96 378.642 3112.9 386.92C3115.91 395.543 3117.71 404.547 3118.23 413.668C3118.23 420.993 3118.23 428.763 3118.23 436.865C3118.23 444.967 3118.23 452.515 3118.23 459.063C3117.71 468.184 3115.91 477.188 3112.9 485.812C3110.01 494.113 3105.35 501.688 3099.25 508.01C3092.7 514.637 3084.83 519.817 3076.16 523.215C3054.6 530.761 3031.12 530.761 3009.57 523.215C3000.89 519.817 2993.03 514.637 2986.48 508.01C2980.37 501.688 2975.72 494.113 2972.83 485.812C2969.81 477.188 2968.02 468.184 2967.5 459.063C2967.5 452.071 2967.5 444.523 2967.5 436.865C2967.5 429.207 2967.5 420.993 2967.5 413.668C2968.02 404.547 2969.81 395.543 2972.83 386.92C2975.77 378.642 2980.42 371.077 2986.48 364.722C2993.03 358.094 3000.89 352.914 3009.57 349.516C3020.2 345.516 3031.5 343.595 3042.86 343.855ZM3070.61 458.175C3071.28 443.524 3071.28 429.096 3070.61 414.778C3070.33 410.801 3069.66 406.861 3068.61 403.013C3067.8 399.598 3066.28 396.386 3064.17 393.579C3061.94 390.837 3059.09 388.669 3055.85 387.253C3051.77 385.571 3047.38 384.776 3042.97 384.922C3038.57 384.786 3034.18 385.58 3030.1 387.253C3026.86 388.669 3024.01 390.837 3021.78 393.579C3019.67 396.405 3018.13 399.607 3017.23 403.013C3016.11 406.842 3015.48 410.794 3015.34 414.778C3014.56 429.233 3014.56 443.72 3015.34 458.175C3015.52 462.177 3016.08 466.153 3017 470.051C3017.92 473.472 3019.5 476.679 3021.66 479.485C3023.94 482.2 3026.83 484.332 3030.1 485.701C3034.18 487.373 3038.57 488.167 3042.97 488.031C3047.38 488.177 3051.77 487.382 3055.85 485.701C3059.12 484.332 3062.01 482.2 3064.28 479.485C3066.45 476.679 3068.03 473.472 3068.95 470.051C3069.87 466.153 3070.43 462.177 3070.61 458.175Z" fill="#BA68C8"/>
<path d="M3234.77 526.767C3232.93 526.711 3231.18 525.957 3229.88 524.657C3228.58 523.358 3227.83 521.612 3227.77 519.775V493.47H3146.53C3145.62 493.487 3144.72 493.319 3143.88 492.976C3143.04 492.632 3142.28 492.12 3141.64 491.472C3140.32 490.145 3139.56 488.353 3139.54 486.478V459.174C3139.38 455.19 3140.59 451.272 3142.98 448.075L3220 350.848C3221.17 349.306 3222.65 348.022 3224.33 347.074C3225.99 346.423 3227.77 346.121 3229.55 346.186H3268.51C3270.34 346.242 3272.09 346.997 3273.39 348.296C3274.69 349.596 3275.44 351.342 3275.5 353.179V452.182H3297.7C3299.53 452.238 3301.28 452.992 3302.58 454.292C3303.88 455.591 3304.63 457.337 3304.69 459.174V486.478C3304.66 488.353 3303.91 490.145 3302.58 491.472C3301.94 492.12 3301.18 492.632 3300.34 492.976C3299.5 493.319 3298.6 493.487 3297.7 493.47H3275.5V519.775C3275.44 521.612 3274.69 523.358 3273.39 524.657C3272.09 525.957 3270.34 526.711 3268.51 526.767H3234.77ZM3229.1 452.182V404.789L3191.48 452.182H3229.1Z" fill="#BA68C8"/>
</svg>
